<svg width="74" height="61" viewBox="0 0 74 61" fill="none" xmlns="http://www.w3.org/2000/svg">
<path d="M38.4576 52.3178H3.36364C2.13031 52.3178 1.12122 51.303 1.12122 50.0628V3.38252C1.12122 2.14223 2.13031 1.12744 3.36364 1.12744H62.3394C63.5727 1.12744 64.5818 2.14223 64.5818 3.38252V26.4971" stroke="#1D51FD" stroke-width="2" stroke-miterlimit="10"/>
<path d="M9.97876 10.599C10.4741 10.599 10.8757 10.1951 10.8757 9.69696C10.8757 9.19878 10.4741 8.79492 9.97876 8.79492C9.48337 8.79492 9.08179 9.19878 9.08179 9.69696C9.08179 10.1951 9.48337 10.599 9.97876 10.599Z" stroke="#1D51FD" stroke-width="2" stroke-miterlimit="10" stroke-linecap="round" stroke-linejoin="round"/>
<path d="M17.9395 10.599C18.4348 10.599 18.8364 10.1951 18.8364 9.69696C18.8364 9.19878 18.4348 8.79492 17.9395 8.79492C17.4441 8.79492 17.0425 9.19878 17.0425 9.69696C17.0425 10.1951 17.4441 10.599 17.9395 10.599Z" stroke="#1D51FD" stroke-width="2" stroke-miterlimit="10" stroke-linecap="round" stroke-linejoin="round"/>
<path d="M25.4515 10.599C25.9469 10.599 26.3485 10.1951 26.3485 9.69696C26.3485 9.19878 25.9469 8.79492 25.4515 8.79492C24.9562 8.79492 24.5546 9.19878 24.5546 9.69696C24.5546 10.1951 24.9562 10.599 25.4515 10.599Z" stroke="#1D51FD" stroke-width="2" stroke-miterlimit="10" stroke-linecap="round" stroke-linejoin="round"/>
<path d="M9.08179 21.7617H44.0636" stroke="#B5D0FF" stroke-width="2" stroke-miterlimit="10" stroke-linecap="round" stroke-linejoin="round"/>
<path d="M9.08179 31.4585H27.0212" stroke="#B5D0FF" stroke-width="2" stroke-miterlimit="10" stroke-linecap="round" stroke-linejoin="round"/>
<path d="M32.1788 31.4585H36.3273" stroke="#B5D0FF" stroke-width="2" stroke-miterlimit="10" stroke-linecap="round" stroke-linejoin="round"/>
<path d="M9.08179 41.6064H28.4788" stroke="#B5D0FF" stroke-width="2" stroke-miterlimit="10" stroke-linecap="round" stroke-linejoin="round"/>
<path d="M55.1637 54.9111C61.8513 54.9111 67.2727 49.459 67.2727 42.7336C67.2727 36.0082 61.8513 30.5562 55.1637 30.5562C48.476 30.5562 43.0546 36.0082 43.0546 42.7336C43.0546 49.459 48.476 54.9111 55.1637 54.9111Z" stroke="#1D51FD" stroke-width="2" stroke-miterlimit="10"/>
<path d="M73.2151 60.2108L64.3575 51.3032" stroke="#1D51FD" stroke-width="2" stroke-miterlimit="10"/>
</svg>
