<svg width="161" height="29" viewBox="0 0 161 29" fill="none" xmlns="http://www.w3.org/2000/svg">
<path d="M26.5528 28.5452H32.8375L17.1257 0.873047L13.0888 7.9894C12.3548 9.28434 12.3548 10.8826 13.0888 12.1892L20.2795 24.8703C21.5755 27.1452 23.9724 28.5452 26.5528 28.5452Z" fill="#1D51FD"/>
<path d="M5.40346 19.3876L0.208252 28.5456H8.4426C9.83028 28.5456 11.1033 27.7989 11.7914 26.574L15.2549 20.4726C15.5301 19.9826 15.1861 19.376 14.6356 19.376H5.40346V19.3876Z" fill="url(#paint0_linear)"/>
<path d="M48.9628 25.407L47.8389 28.3702C47.7357 28.6502 47.4719 28.8369 47.1738 28.8369H42.4832L50.4423 9.68106C50.6716 9.14442 51.1877 8.79443 51.7611 8.79443H55.454L63.7457 28.8369H61.0276C59.5597 28.8369 58.2293 27.9153 57.6903 26.527L57.2545 25.407H48.9628ZM53.1144 14.5575L50.5799 21.1839H55.6489L53.1144 14.5575Z" fill="#1D51FD"/>
<path d="M70.7286 23.0616V28.1131C70.7286 28.5097 70.4075 28.8364 70.0175 28.8364H65.866V8.89893H74.4558C79.2955 8.89893 82.5526 11.5938 82.5526 15.9103C82.5526 18.6985 81.1419 20.8917 78.8024 22.0933L83.8485 28.8364H79.7657C78.6304 28.8364 77.5638 28.2881 76.8871 27.3664L73.7563 23.0616H70.7286ZM74.3297 18.6052C76.199 18.6052 77.7014 17.5552 77.7014 15.9103C77.7014 14.3004 76.199 13.2737 74.3297 13.2737H70.7286V18.6052H74.3297Z" fill="#1D51FD"/>
<path d="M91.1647 25.407L90.0408 28.3702C89.9376 28.6502 89.6738 28.8368 89.3757 28.8368H84.6851L92.6442 9.66934C92.8735 9.1327 93.3896 8.78271 93.963 8.78271H97.6559L105.948 28.8368H103.23C101.762 28.8368 100.431 27.9152 99.8922 26.5269L99.4564 25.407H91.1647ZM95.3163 14.5575L92.7818 21.1838H97.8509L95.3163 14.5575Z" fill="#1D51FD"/>
<path d="M114.939 13.3321V28.8364H110.076V13.3321H103.826V10.3572C103.826 9.55223 104.468 8.89893 105.259 8.89893H121.178V13.3204H114.939V13.3321Z" fill="#1D51FD"/>
<path d="M128.233 16.8552H136.904V21.0784H128.233V24.5432H138.177V28.848H124.082C123.692 28.848 123.371 28.5214 123.371 28.1247V10.3572C123.371 9.55223 124.013 8.89893 124.804 8.89893H138.177V13.2037H128.233V16.8552Z" fill="#1D51FD"/>
<path d="M154.437 14.7671C154.07 14.0788 153.543 13.5655 152.866 13.2038C152.178 12.8422 151.387 12.6555 150.458 12.6555C148.864 12.6555 147.579 13.1921 146.627 14.2538C145.664 15.3154 145.182 16.7386 145.182 18.5236C145.182 20.4135 145.687 21.8951 146.696 22.9684C147.705 24.03 149.093 24.5666 150.859 24.5666C152.075 24.5666 153.095 24.2516 153.933 23.6333C154.77 23.0034 155.378 22.1051 155.768 20.9385H149.517V18.6986C149.517 17.8936 150.159 17.2403 150.951 17.2403H160.24V21.9067C159.873 23.155 159.254 24.3216 158.382 25.3949C157.511 26.4682 156.398 27.3432 155.056 28.0081C153.715 28.6731 152.189 28.9998 150.504 28.9998C148.508 28.9998 146.719 28.5565 145.159 27.6698C143.588 26.7832 142.372 25.5466 141.501 23.96C140.629 22.3734 140.193 20.5651 140.193 18.5352C140.193 16.5053 140.629 14.6854 141.501 13.0988C142.372 11.5005 143.588 10.2639 145.148 9.3773C146.707 8.49068 148.485 8.04736 150.481 8.04736C152.9 8.04736 154.942 8.64234 156.605 9.83228C158.268 11.0222 159.369 12.6788 159.908 14.7904H154.437V14.7671Z" fill="#1D51FD"/>
<defs>
<linearGradient id="paint0_linear" x1="3.08788" y1="26.6343" x2="21.9267" y2="15.5388" gradientUnits="userSpaceOnUse">
<stop stop-color="#1D51FD"/>
<stop offset="0.7419" stop-color="#B5CBEF" stop-opacity="0"/>
</linearGradient>
</defs>
</svg>
