<svg width="198" height="197" viewBox="0 0 198 197" fill="none" xmlns="http://www.w3.org/2000/svg">
<mask id="mask0" mask-type="alpha" maskUnits="userSpaceOnUse" x="0" y="0" width="198" height="197">
<path d="M98.8002 196.78C153.139 196.78 197.19 152.729 197.19 98.39C197.19 44.0507 153.139 0 98.8002 0C44.4609 0 0.410156 44.0507 0.410156 98.39C0.410156 152.729 44.4609 196.78 98.8002 196.78Z" fill="#E7EBF2"/>
</mask>
<g mask="url(#mask0)">
<path d="M115.339 29.2802C119.629 33.8702 121.339 38.5702 120.439 43.2802L108.609 35.6302C103.809 39.4002 97.1686 40.2202 88.8086 38.1802C94.3186 41.2402 100.809 42.3602 108.499 41.5502L116.669 47.0002L118.199 64.1402L120.199 70.7802L121.829 66.6902L123.159 63.6302L124.489 52.3002C126.629 44.2402 123.979 36.7902 116.419 29.8502C116.035 29.666 115.661 29.4624 115.299 29.2402L115.339 29.2802Z" fill="#A0A5B4"/>
<path d="M120.438 43.2601C121.358 38.5701 119.628 33.8701 115.338 29.2601C109.626 25.7018 102.983 23.9263 96.2575 24.1601C87.4775 25.8901 81.0475 29.7701 76.8575 35.6901C73.4975 42.2201 72.5775 50.9001 74.1075 61.8201C76.2475 62.4301 77.4775 64.8201 77.7775 68.7601L79.7175 60.5901L78.7175 48.3401C80.2475 43.5501 83.0075 40.2801 87.0875 38.4401C87.5669 38.3254 88.038 38.1784 88.4975 38.0001C88.5975 38.1101 88.7075 38.1101 88.8075 38.2101C97.1675 40.2101 103.808 39.4301 108.608 35.6601L120.438 43.3101V43.2601Z" fill="#A0A5B4"/>
<path d="M118.198 64.1802L116.668 47.0002L108.498 41.4902C100.848 42.3002 94.3178 41.1802 88.8078 38.1202C88.7078 38.0202 88.5978 38.0202 88.4978 37.9102C88.0335 38.1131 87.5557 38.2835 87.0678 38.4202C82.9878 40.2602 80.2278 43.5302 78.6978 48.3202L79.6978 60.5702L77.7578 68.7402L84.1878 63.3302L81.9978 49.4902L86.7878 44.2802C94.0378 49.4902 100.878 50.4102 107.308 46.9402L113.308 53.6702L115.558 69.2902L120.248 70.8202L118.248 64.1802H118.198Z" fill="#F5F6FA"/>
<path d="M86.7597 44.2803L81.9997 49.4903L84.2397 63.3703L77.8097 68.7803C77.5097 64.7803 76.2797 62.4503 74.1397 61.8403C73.5016 64.6547 73.4302 67.568 73.9297 70.4103C73.5297 73.8803 74.8497 76.1303 78.0197 77.1503L76.8897 71.5303L77.9997 77.1503C78.7065 80.4029 79.7314 83.5782 81.0597 86.6303C95.553 97.3503 106.44 97.1469 113.72 86.0203L116.72 77.1503L123 70.5103C122.845 69.1942 122.463 67.9151 121.87 66.7303L120.24 70.8203L115.55 69.2903L113.3 53.6703L107.3 46.9403C100.87 50.4103 94.0297 49.4903 86.7797 44.2803H86.7597Z" fill="white"/>
<path d="M81.0508 93.1699V99.6999C82.577 104.685 85.5198 109.118 89.5208 112.46C96.9919 110.373 103.672 106.108 108.711 100.21V95.9199C105.524 98.2394 101.967 100.001 98.1908 101.13C90.3408 99.4999 84.6208 94.6999 81.0508 86.6299V93.1699Z" fill="white"/>
<path d="M81.0486 99.6999V93.1699L77.7786 97.6599L76.5586 111.75L82.6786 131.24L86.3586 126.44L90.2286 121.64L93.5986 117.36L98.9986 127.87L101.759 133.28L118.759 107.66L119.369 97.6599L116.369 94.0899V98.7799C108.719 106.44 101.169 112.05 93.7186 115.52C92.2099 114.615 90.7753 113.592 89.4286 112.46C85.4277 109.118 82.4849 104.685 80.9586 99.6999H81.0486Z" fill="#F5F6FA"/>
<path d="M108.71 95.9201V100.21C103.671 106.108 96.9907 110.373 89.5195 112.46C90.8663 113.592 92.3008 114.615 93.8095 115.52C101.26 112.05 108.81 106.44 116.46 98.7801V85.6201C114.89 89.7105 112.205 93.2789 108.71 95.9201Z" fill="#F5F6FA"/>
<path d="M98.1878 101.13C101.964 100.001 105.521 98.2398 108.708 95.9202C112.203 93.279 114.888 89.7106 116.458 85.6203C117.111 83.9026 117.59 82.1236 117.888 80.3102C121.468 77.1502 123.198 73.8803 122.998 70.5103L116.668 77.1503L113.668 86.0202C106.421 97.1536 95.5345 97.3569 81.0078 86.6302C84.5778 94.7002 90.2978 99.5002 98.1478 101.13H98.1878Z" fill="#F5F6FA"/>
<path d="M66.9997 100.21L61.6897 101.44L51.3497 118.17L57.6797 125.93L48.6797 134.5C54.9997 162.5 56.8697 193.423 54.2897 227.27C54.5803 226.44 54.9141 225.625 55.2897 224.83C60.4997 191.65 59.9897 162.47 53.5597 137.15L66.4497 124.3L56.1497 117.05L66.9997 100.21Z" fill="#1D51FD"/>
<path d="M61.6591 101.44L44.5091 105.31C32.1557 108.777 26.0324 123.777 26.1391 150.31V188.38L18.7891 200.38L24.4091 216.61L20.9391 221V229.16L28.1791 259.16L36.4491 223.74L38.5891 190.57L31.9991 180.73L45.8391 144.3L40.6291 181.15L45.3291 195.64L43.8991 225.85L40.5291 251.77L42.5291 255.44L45.6991 247.79L48.9991 240.13L53.7991 228.4C53.9918 228.034 54.1622 227.657 54.3091 227.27C56.8557 193.39 54.9857 162.467 48.6991 134.5L57.6991 125.93L51.3691 118.17L61.6791 101.44H61.6591Z" fill="#1D51FD"/>
<path d="M75.23 124.7L73.9 137.7C71.9 169.44 65.64 198.42 55.33 224.86C54.9544 225.655 54.6207 226.47 54.33 227.3C54.1831 227.687 54.0128 228.064 53.82 228.43L49 240.13C60.3333 245.543 70.1333 247.79 78.4 246.87L77 243.81L72.78 235L69.62 228.88L76.35 157.33L84.21 136.41H77.78L75.23 124.67V124.7Z" fill="#1D51FD"/>
<path d="M73.8977 137.67L75.2277 124.67L76.5577 111.67L77.7777 97.5801L66.9977 100.21L56.1477 117.05L66.4477 124.3L53.5977 137.15C60.0277 162.47 60.5377 191.65 55.3277 224.83C65.6377 198.39 71.8577 169.41 73.8977 137.67Z" fill="#B5D0FF"/>
<path d="M101.77 133.28L98.9997 127.87L94.0997 131.14L95.0197 133.79H98.0197L102.82 140.93L112.62 125.21L110.75 145C106.083 165.507 104.69 184.623 106.57 202.35L117.79 229.91C114.22 238.17 105.64 243.28 92.1797 245.22C107.28 247.22 120.18 244.22 130.65 236.13C128.002 233.773 125.576 231.179 123.4 228.38C120.8 225.082 118.607 221.483 116.87 217.66C108.496 200.007 108.163 176.533 115.87 147.24C115.992 146.516 116.163 145.801 116.38 145.1L118.83 107.64L101.83 133.26L101.77 133.28Z" fill="#1D51FD"/>
<path d="M93.598 117.36L90.228 121.64L93.908 126.34L89.418 131.14H94.108L99.008 127.87L93.598 117.36Z" fill="#1D51FD"/>
<path d="M94.1087 131.14H89.4187L96.1588 152.36L88.5987 226.56L76.9688 243.81L78.3988 246.87L81.7588 253.91L89.0088 244.73L96.2487 235.54L100.139 149.91L95.0287 133.79L94.1087 131.14Z" fill="#1D51FD"/>
<path d="M86.3594 126.44L89.4194 131.14L93.9094 126.34L90.2294 121.64L86.3594 126.44Z" fill="#1D51FD"/>
<path d="M89.4172 131.14L86.3572 126.44L82.6772 131.24L76.5572 111.75L75.2272 124.7L77.7772 136.44H84.2172L76.3472 157.36L69.6172 228.91L72.7772 235.03L79.2072 160.22L89.4172 131.14Z" fill="#1D51FD"/>
<path d="M102.79 140.93L97.99 133.79H94.99L100.1 149.91L96.22 235.54L89 244.73C90.0656 244.839 91.124 245.009 92.17 245.24C105.63 243.3 114.17 238.19 117.78 229.93L106.56 202.37C104.62 184.623 106.013 165.507 110.74 145.02L112.58 125.21L102.78 140.93H102.79Z" fill="#1D51FD"/>
<path d="M96.1573 152.36L89.4173 131.14L79.2073 160.22L72.7773 235.03L76.9673 243.81L88.5973 226.56L96.1573 152.36Z" fill="#1D51FD"/>
<path d="M119.421 97.6602L118.811 107.66L116.361 145.12C116.144 145.821 115.973 146.536 115.851 147.26C108.204 176.553 108.538 200.027 116.851 217.68C116.038 185.433 125.324 160.497 144.711 142.87L128.791 126.87L139.611 123.81L129.201 102.27L119.401 97.6802L119.421 97.6602Z" fill="#B5D0FF"/>
<path d="M141.159 108L129.219 102.28L139.629 123.82L128.809 126.88L144.729 142.88C125.343 160.54 116.056 185.477 116.869 217.69C118.607 221.513 120.8 225.112 123.399 228.41C119.833 198.297 129.326 170.63 151.879 145.41L139.429 131.33L146.979 126.53L141.159 108Z" fill="#1D51FD"/>
<path d="M147 126.54L139.45 131.34L151.9 145.42C129.34 170.633 119.847 198.3 123.42 228.42C125.596 231.218 128.023 233.812 130.67 236.17C131.18 236.68 131.79 237.09 132.41 237.6L132.61 237.3L142.1 242.61L153.41 195L156.27 142.14L161.78 184.6L157.49 224.4L144.22 262.87C147.319 265.159 150.1 267.849 152.49 270.87L174.49 213.93L168.49 204.74V181C170.578 157.937 165.856 134.767 154.91 114.36L141.16 108L147 126.54Z" fill="#1D51FD"/>
<path d="M171.17 138.38C171.88 125.01 166.47 116.95 154.94 114.38C165.881 134.782 170.603 157.943 168.52 181V204.68L174.52 213.87L152.52 270.81C154.407 273.283 156.08 275.912 157.52 278.67L159.52 282.04C160.52 274.39 164.01 267.04 169.93 259.89L181.87 210.7L178.1 203.05V188.9L171.16 138.38H171.17Z" fill="#1D51FD"/>
<path d="M132.589 237.28L132.379 237.58L138.299 250.24L144.219 262.89L157.489 224.42L161.779 184.62L156.269 142.16L153.409 195.03L142.079 242.59L132.589 237.28Z" fill="#1D51FD"/>
<path d="M45.3297 195.63L40.6297 181.15L45.8397 144.3L31.9597 180.74L38.5897 190.53L36.4497 223.71L28.1797 259.12L29.1997 263.4V265.04L40.5297 251.77L43.8997 225.85L45.3297 195.63Z" fill="#1D51FD"/>
</g>
</svg>
