<svg width="72" height="72" viewBox="0 0 72 72" fill="none" xmlns="http://www.w3.org/2000/svg">
<path d="M51.8 49.1636C53.6778 49.1636 55.2 47.5518 55.2 45.5636C55.2 43.5754 53.6778 41.9636 51.8 41.9636C49.9223 41.9636 48.4 43.5754 48.4 45.5636C48.4 47.5518 49.9223 49.1636 51.8 49.1636Z" stroke="#1D51FD" stroke-width="2" stroke-miterlimit="10" stroke-linecap="round" stroke-linejoin="round"/>
<path d="M1 35V24.565C1 23.0047 1.88933 21.5418 3.27273 20.8592L45.3676 1.35455C47.9368 0.184276 51 2.03721 51 5.06043V11.3019" stroke="#1D51FD" stroke-width="2" stroke-miterlimit="10" stroke-linecap="round" stroke-linejoin="round"/>
<path d="M1 26C1 23.9194 2.27833 22.1509 4.14667 21.8388L55.28 10.0834C57.7383 9.56324 60 11.5398 60 14.2446V21.8388" stroke="#B5D0FF" stroke-width="2" stroke-miterlimit="10" stroke-linecap="round" stroke-linejoin="round"/>
<path d="M67 37V25.9357C67 23.7711 65.35 22 63.3333 22H4.66667C2.65 22 1 23.7711 1 25.9357V67.0643C1 69.2289 2.65 71 4.66667 71H63.3333C65.35 71 67 69.2289 67 67.0643V54" stroke="#1D51FD" stroke-width="2" stroke-miterlimit="10" stroke-linecap="round" stroke-linejoin="round"/>
<path d="M45.8796 54H71V37H45.8796C43.7458 37 42 38.7191 42 40.8202V50.0843C42 52.2809 43.7458 54 45.8796 54Z" stroke="#B5D0FF" stroke-width="2" stroke-miterlimit="10" stroke-linecap="round" stroke-linejoin="round"/>
</svg>
