<svg width="73" height="61" viewBox="0 0 73 61" fill="none" xmlns="http://www.w3.org/2000/svg">
<path d="M8.2371 52.2533H4.62659C2.7085 52.2533 1.12891 50.663 1.12891 48.7319V12.3818C1.12891 10.4507 2.7085 8.86035 4.62659 8.86035H8.34993" stroke="#1D51FD" stroke-width="2" stroke-miterlimit="10" stroke-linecap="round" stroke-linejoin="round"/>
<path d="M35.7661 4.65716V8.97373H18.8418V4.65716C18.8418 2.72606 20.4214 1.13574 22.3395 1.13574H32.3812C34.1865 1.13574 35.7661 2.72606 35.7661 4.65716Z" stroke="#1D51FD" stroke-width="2" stroke-miterlimit="10"/>
<path d="M39.8281 8.86035H47.162" stroke="#1D51FD" stroke-width="2" stroke-miterlimit="10" stroke-linecap="round" stroke-linejoin="round"/>
<path d="M14.7812 8.86035H18.8431H35.7673H39.8292" stroke="#1D51FD" stroke-width="2" stroke-miterlimit="10"/>
<path d="M31.5916 52.2529H15.0059" stroke="#1D51FD" stroke-width="2" stroke-miterlimit="10" stroke-linecap="square" stroke-linejoin="round"/>
<path d="M16.361 52.2529H8.01172" stroke="#1D51FD" stroke-width="2" stroke-miterlimit="10" stroke-linecap="round" stroke-linejoin="round"/>
<path d="M6.99609 8.86035H15.3454" stroke="#1D51FD" stroke-width="2" stroke-miterlimit="10"/>
<path d="M23.0176 36.2363V41.3481H29.336" stroke="#B5D0FF" stroke-width="2" stroke-miterlimit="10"/>
<path d="M34.1875 41.1212V43.8475L37.9108 45.3242C38.2493 46.5737 38.8135 47.7097 39.3776 48.732L37.798 52.367L41.747 56.3428L45.4703 54.7525C46.4858 55.3205 47.7269 55.7749 48.8552 56.1156L50.4348 59.7506H55.9634L57.543 56.002C58.7841 55.6613 59.9124 55.0933 60.9278 54.5253L64.5383 56.1156L68.4873 52.1398L66.9077 48.3912C67.4719 47.2553 68.036 46.0058 68.2617 44.7562L71.8722 43.3931V37.827L68.036 36.2367C67.6975 35.1007 67.2462 33.9648 66.6821 33.056L68.1489 29.3074L64.1999 25.3316L63.1844 25.6724L60.3637 26.8084C59.3482 26.2404 58.22 25.786 57.0917 25.5588L55.6249 21.9238H50.0963L48.5167 25.5588C47.2756 25.8996 46.0345 26.4676 44.9062 27.1492L41.4085 25.5588L37.5724 29.5346L39.152 33.2832C38.5878 34.4192 38.1365 35.5551 37.798 36.8046L34.1875 38.2814V41.1212V41.1212Z" stroke="#1D51FD" stroke-width="2" stroke-miterlimit="10"/>
<path d="M54.7226 48.3909C54.1585 48.5044 53.5944 48.618 53.0302 48.618C52.4661 48.618 51.9019 48.5044 51.3378 48.3909C50.4352 48.1637 49.5325 47.8229 48.8556 47.2549C46.8246 45.8918 45.4707 43.6199 45.4707 41.0072C45.4707 40.8936 45.4707 40.7801 45.4707 40.7801C45.4707 36.4635 48.9684 33.0557 53.143 33.0557C57.4305 33.0557 60.8154 36.4635 60.8154 40.7801C60.7025 44.5287 58.2203 47.5957 54.7226 48.3909Z" stroke="#B5D0FF" stroke-width="2" stroke-miterlimit="10"/>
<path d="M54.1569 15.4488V12.3818C54.1569 10.4507 52.5773 8.86035 50.6592 8.86035H46.0332" stroke="#1D51FD" stroke-width="2" stroke-miterlimit="10" stroke-linecap="square" stroke-linejoin="round"/>
<path d="M31.4784 27.7172H27.1909C8.79991 27.7172 2.25586 10.9053 2.25586 10.9053" stroke="#1D51FD" stroke-width="2" stroke-miterlimit="10"/>
</svg>
