<svg width="73" height="52" viewBox="0 0 73 52" fill="none" xmlns="http://www.w3.org/2000/svg">
<g clip-path="url(#clip0)">
<path d="M19.6309 42.3746H12.5373C6.27124 42.3746 1.1875 37.3272 1.1875 31.106C1.1875 26.2934 4.26139 22.185 8.51755 20.5417C8.51755 20.1895 8.51755 19.8374 8.51755 19.4852C8.39932 9.15567 16.6752 0.938965 26.9609 0.938965C34.4092 0.938965 40.7934 5.28208 43.7491 11.5033C45.4043 10.5642 47.2959 10.0947 49.3057 10.0947C54.7442 10.0947 59.355 13.9683 60.419 19.0157C66.4486 19.72 71.0594 24.8848 71.0594 30.9886C71.0594 37.6794 65.621 42.2572 58.8821 42.2572C58.7639 42.2572 58.6456 42.2572 58.5274 42.2572" stroke="#1D51FD" stroke-width="2" stroke-miterlimit="10"/>
<path d="M59.0016 42.3745H58.647H50.3711" stroke="#1D51FD" stroke-width="2" stroke-miterlimit="10"/>
<path d="M43.6324 32.8668C41.6225 30.5191 38.5486 28.9932 35.2383 28.9932C29.0905 28.9932 24.125 33.9232 24.125 40.027C24.125 46.1309 29.0905 51.0609 35.2383 51.0609C41.3861 51.0609 46.3516 46.1309 46.3516 40.027" stroke="#B5D0FF" stroke-width="2" stroke-miterlimit="10"/>
<path d="M44.6981 29.228L44.3434 33.8059L39.4961 33.9233" stroke="#B5D0FF" stroke-width="2" stroke-miterlimit="10"/>
</g>
<defs>
<clipPath id="clip0">
<rect width="72" height="52" fill="white" transform="translate(0.125)"/>
</clipPath>
</defs>
</svg>
