<svg width="68" height="70" viewBox="0 0 68 70" fill="none" xmlns="http://www.w3.org/2000/svg">
<g clip-path="url(#clip0)">
<path d="M23.9023 46.9343L34.4968 57.1174L28.4636 63.7552L18.8789 51.7183" stroke="#B5D0FF" stroke-width="2" stroke-miterlimit="10" stroke-linecap="round" stroke-linejoin="round"/>
<path d="M45.1961 46.8831L34.6016 57.0661L40.6348 63.7039L50.2195 51.667" stroke="#B5D0FF" stroke-width="2" stroke-miterlimit="10" stroke-linecap="round" stroke-linejoin="round"/>
<path d="M24.7843 42.6799C24.5019 43.6709 23.8943 44.4654 23.8087 45.5418C23.7659 46.1227 22.8588 46.49 22.3795 46.8403C21.9602 47.1478 20.0689 47.6092 19.855 48.0875C19.487 48.8906 19.2987 49.779 18.9821 50.5991C18.8708 50.8981 18.6141 51.2057 18.3317 51.3509C15.3707 52.9484 12.3841 54.5203 9.40596 56.0922C6.93276 57.3992 4.46813 58.7148 1.97782 59.9877C1.1905 60.3892 0.831078 60.9274 0.856751 61.8244C0.890982 63.6355 0.882424 65.4551 0.856751 67.2662C0.839635 68.0863 1.06214 68.7441 1.83234 69.1456H66.1696C66.9484 68.7527 67.1538 68.0949 67.1452 67.2662C67.1195 65.4637 67.1024 63.6782 67.1452 61.8757C67.1709 60.936 66.8029 60.3807 65.9642 59.9536C62.6096 58.2194 59.2806 56.4339 55.9431 54.6741C53.855 53.5721 51.7412 52.4786 49.6617 51.3509C49.3878 51.1971 49.1225 50.8981 49.0113 50.5991C48.6947 49.7876 48.4636 48.9504 48.1812 48.1303C47.9844 47.5323 47.6421 47.0453 47.0516 46.772C46.5809 46.5498 44.741 46.1398 44.6896 45.6528C44.5955 44.7388 44.2275 43.9443 43.9451 43.1156" stroke="#1D51FD" stroke-width="2" stroke-miterlimit="10" stroke-linecap="round" stroke-linejoin="round"/>
<path d="M50.5499 22.7068H53.4852C54.2554 22.7068 54.8801 23.3304 54.8801 24.0993V32.6677C54.8801 33.4366 54.2554 34.0602 53.4852 34.0602H51.5512C50.781 34.0602 50.1562 33.4366 50.1562 32.6677V29.1993" stroke="#B5D0FF" stroke-width="2" stroke-miterlimit="10" stroke-linecap="round" stroke-linejoin="round"/>
<path d="M18.2904 22.7068H15.723C14.9528 22.7068 14.3281 23.3304 14.3281 24.0993V32.6677C14.3281 33.4366 14.9528 34.0602 15.723 34.0602H17.6571C18.4273 34.0602 19.052 33.4366 19.052 32.6677V29.8657" stroke="#B5D0FF" stroke-width="2" stroke-miterlimit="10" stroke-linecap="round" stroke-linejoin="round"/>
<path d="M51.6397 2.99003C51.6397 2.99003 42.8081 2.27243 32.8554 0.905575C28.8932 0.615118 27.0362 1.46086 24.7427 3.91265C24.7427 3.91265 14.3108 1.9478 18.1361 20.8104C18.1361 20.8104 18.2473 28.2085 20.1044 34.3508C22.2524 41.467 27.2501 47.3103 34.7125 47.3103C42.7482 47.3103 47.2239 42.0735 49.2436 34.2312C50.1764 30.609 50.5957 26.4316 50.5957 21.9637C50.5957 21.9722 55.3453 12.2505 51.6397 2.99003Z" stroke="#1D51FD" stroke-width="2" stroke-miterlimit="10" stroke-linecap="round" stroke-linejoin="round"/>
<path d="M50.5939 21.9124C50.5939 21.9124 48.0779 11.5927 22.7298 15.138C22.7298 15.138 18.7076 20.8446 18.4766 26.013" stroke="#1D51FD" stroke-width="2" stroke-miterlimit="10" stroke-linecap="round" stroke-linejoin="round"/>
<path d="M54.8809 32.6592C54.8809 32.6592 53.0838 46.3363 40.5039 41.8769" stroke="#B5D0FF" stroke-width="2" stroke-miterlimit="10" stroke-linecap="round" stroke-linejoin="round"/>
<path d="M38.2724 42.6288C40.0495 42.6288 41.4901 41.1907 41.4901 39.4167C41.4901 37.6427 40.0495 36.2046 38.2724 36.2046C36.4953 36.2046 35.0547 37.6427 35.0547 39.4167C35.0547 41.1907 36.4953 42.6288 38.2724 42.6288Z" stroke="#B5D0FF" stroke-width="2" stroke-miterlimit="10" stroke-linecap="round" stroke-linejoin="round"/>
</g>
<defs>
<clipPath id="clip0">
<rect width="68" height="70" fill="white"/>
</clipPath>
</defs>
</svg>
