<svg width="70" height="54" viewBox="0 0 70 54" fill="none" xmlns="http://www.w3.org/2000/svg">
<path d="M50.6284 50.7683C56.5307 50.7683 61.3155 45.945 61.3155 39.9952C61.3155 34.0454 56.5307 29.2222 50.6284 29.2222C44.7262 29.2222 39.9414 34.0454 39.9414 39.9952C39.9414 45.945 44.7262 50.7683 50.6284 50.7683Z" stroke="#B5D0FF" stroke-width="2" stroke-miterlimit="10" stroke-linecap="round" stroke-linejoin="round"/>
<path d="M25.5169 40.1298C12.0245 40.1298 1.07031 37.0326 1.07031 32.9927" stroke="#1D51FD" stroke-width="2" stroke-miterlimit="10" stroke-linecap="round" stroke-linejoin="round"/>
<path d="M39.1428 51.8454C35.536 52.5187 30.0589 52.9227 25.5169 52.9227C12.0245 52.9227 1.07031 49.6908 1.07031 45.6509" stroke="#1D51FD" stroke-width="2" stroke-miterlimit="10" stroke-linecap="round" stroke-linejoin="round"/>
<path d="M1.07031 32.4541V45.6511" stroke="#1D51FD" stroke-width="2" stroke-miterlimit="10" stroke-linecap="round" stroke-linejoin="round"/>
<path d="M32.8642 39.9952C30.8604 40.1298 27.6543 40.2645 25.5169 40.2645C12.0245 40.2645 1.07031 37.0326 1.07031 32.9927" stroke="#1D51FD" stroke-width="2" stroke-miterlimit="10" stroke-linecap="round" stroke-linejoin="round"/>
<path d="M1.07031 19.7954V32.9924" stroke="#1D51FD" stroke-width="2" stroke-miterlimit="10" stroke-linecap="round" stroke-linejoin="round"/>
<path d="M25.5169 15.3515C39.0183 15.3515 49.9634 12.156 49.9634 8.21431C49.9634 4.27256 39.0183 1.07715 25.5169 1.07715C12.0154 1.07715 1.07031 4.27256 1.07031 8.21431C1.07031 12.156 12.0154 15.3515 25.5169 15.3515Z" stroke="#1D51FD" stroke-width="2" stroke-miterlimit="10" stroke-linecap="round" stroke-linejoin="round"/>
<path d="M35.6696 28.0098C33.9329 28.1445 27.3871 28.1445 25.5169 28.1445C12.0245 28.1445 1.07031 24.9126 1.07031 21.0073" stroke="#1D51FD" stroke-width="2" stroke-miterlimit="10" stroke-linecap="round" stroke-linejoin="round"/>
<path d="M1.07031 7.67578V21.0075" stroke="#1D51FD" stroke-width="2" stroke-miterlimit="10" stroke-linecap="round" stroke-linejoin="round"/>
<path d="M49.9609 7.67578V23.5661" stroke="#1D51FD" stroke-width="2" stroke-miterlimit="10" stroke-linecap="round" stroke-linejoin="round"/>
<path d="M54.9035 36.0898L49.1593 42.9577L46.6211 40.5337" stroke="#B5D0FF" stroke-width="2" stroke-miterlimit="10" stroke-linecap="square" stroke-linejoin="round"/>
</svg>
