<svg width="198" height="197" viewBox="0 0 198 197" fill="none" xmlns="http://www.w3.org/2000/svg">
<mask id="mask0" mask-type="alpha" maskUnits="userSpaceOnUse" x="0" y="0" width="198" height="197">
<path d="M99.0892 196.78C153.429 196.78 197.479 152.729 197.479 98.39C197.479 44.0507 153.429 0 99.0892 0C44.7499 0 0.699219 44.0507 0.699219 98.39C0.699219 152.729 44.7499 196.78 99.0892 196.78Z" fill="#E7EBF2"/>
</mask>
<g mask="url(#mask0)">
<path d="M120.669 67.34L121.469 47.78C121.049 43.3823 119.198 39.244 116.199 36C115.879 38.64 113.249 40 108.379 40.15C116.279 43.15 117.879 46.94 113.089 51.81L114.209 76L116.209 74.88L117.729 67.62C118.644 67.1597 119.702 67.0736 120.679 67.38L120.669 67.34Z" fill="#A0A5B4"/>
<path d="M108.378 40.11C113.248 39.95 115.878 38.6 116.198 35.96C112.198 31.89 106.198 29.1 98.1983 27.66C83.9116 24.94 74.0116 30.6333 68.4983 44.74C66.8183 51.3686 66.8183 58.3115 68.4983 64.94L68.8183 65.94L71.8183 62.75C69.5883 57.08 71.0983 49.42 76.2883 39.83L79.5683 39.91C89.2283 44.46 98.3283 44.3 106.788 39.51C107.333 39.6608 107.868 39.8479 108.388 40.07L108.378 40.11Z" fill="#A0A5B4"/>
<path d="M113.087 51.7698C117.877 46.8998 116.277 43.0698 108.377 40.1098C107.857 39.8877 107.323 39.7006 106.777 39.5498C98.3174 44.3398 89.2174 44.5498 79.5574 39.9498C73.4074 49.3698 71.8874 56.1598 75.0074 60.2298L74.2074 71.9998L78.2074 61.1398C76.6074 53.9598 77.7274 48.6898 81.5574 45.4098C90.2574 49.6398 98.3274 49.6398 105.667 45.4098C112.667 44.2198 113.977 46.9298 109.747 53.7198L114.207 75.9998L113.087 51.8098V51.7698Z" fill="#F5F6FA"/>
<path d="M109.737 53.6901C113.967 46.9001 112.607 44.1901 105.657 45.3801C98.317 49.6101 90.247 49.6101 81.547 45.3801C77.717 48.6601 76.547 53.9301 78.197 61.1101L74.197 71.9701L74.117 72.9701H71.887C72.287 69.6901 71.247 67.3801 68.887 65.9701C67.367 75.2301 68.647 80.3401 72.797 81.3001C73.2513 83.5801 74.0863 85.7673 75.267 87.7701C84.617 97.1101 91.957 101.26 97.267 100.38C106.607 95.5101 112.437 88.1701 114.827 78.2701C115.524 78.2822 116.212 78.117 116.827 77.7901C119.147 76.5901 120.417 73.0801 120.657 67.3301C119.68 67.0237 118.622 67.1098 117.707 67.5701L116.187 74.8301L114.187 75.9501L109.717 53.6801L109.737 53.6901ZM78.677 69.1801C76.197 79.6301 81.227 89.2901 93.847 98.3201C80.907 92.3201 74.607 85.1401 74.847 76.6001L78.687 69.1801H78.677Z" fill="white"/>
<path d="M93.8481 98.3202C81.2281 89.3202 76.1981 79.6302 78.6781 69.1802L74.8381 76.6002C74.6081 85.1402 80.9081 92.3302 93.8381 98.3202H93.8481Z" fill="#F5F6FA"/>
<path d="M74.9969 60.2301C71.8769 56.1601 73.3969 49.3701 79.5469 39.9501L76.2669 39.8701C71.0769 49.4601 69.5669 57.1201 71.7969 62.7901L68.7969 65.9801C71.1869 67.4201 72.2269 69.7301 71.7969 72.9801H74.0369L74.1169 71.9801L74.9169 60.2401L74.9969 60.2301Z" fill="#A0A5B4"/>
<path d="M76.9983 90.4102L76.2783 91.0502V110.05L71.4883 116.84C78.347 122.063 84.2161 128.47 88.8183 135.76C92.4808 127.506 98.2977 120.391 105.658 115.16V99.0002L104.658 99.8702C96.7583 106.42 90.0483 106.1 84.6583 99.0002L80.9983 94.3202C79.5301 93.1623 78.1892 91.8516 76.9983 90.4102ZM77.4783 94.7202L81.3083 99.8302V116.12H74.2083L77.4783 112.93V94.7202Z" fill="white"/>
<path d="M81.307 99.8302L77.477 94.7202V112.93L74.207 116.12H81.307V99.8302Z" fill="#F5F6FA"/>
<path d="M80.9973 94.3298L84.6573 98.9998C90.0873 106.1 96.7973 106.42 104.657 99.8698L105.657 98.9998V115.12C98.2967 120.35 92.4799 127.466 88.8173 135.72L90.4873 138.6L91.7673 139.32C93.9383 135.236 96.4789 131.36 99.3573 127.74C103.194 122.838 107.837 118.625 113.087 115.28L113.567 97.5598L113.807 90.7698L114.447 90.1298C115.68 87.3496 116.434 84.3812 116.677 81.3498L118.597 79.7498C122.187 72.2498 122.907 68.0998 120.667 67.2998C120.427 73.0498 119.157 76.5598 116.837 77.7598C116.222 78.0867 115.534 78.2519 114.837 78.2398C112.447 88.1398 106.617 95.4798 97.2773 100.35C91.9273 101.23 84.5873 97.0798 75.2773 87.7398C75.784 88.671 76.3589 89.5634 76.9973 90.4098C78.1908 91.852 79.5313 93.1658 80.9973 94.3298Z" fill="#F5F6FA"/>
<path d="M116.84 115.56L99.3598 127.78C96.4814 131.4 93.9408 135.276 91.7698 139.36C91.6668 139.638 91.5326 139.903 91.3699 140.15C91.1244 139.62 90.8298 139.115 90.4898 138.64C84.0298 131.05 77.7199 126.74 71.7299 125.78L61.4298 131.69C59.5998 126.26 59.7498 121.31 61.7498 116.76L57.7498 119.39C56.1988 125.745 57.2004 132.455 60.5398 138.08L73.7999 130.33C82.0199 133.05 87.7998 138.24 91.1998 145.82C97.212 135.346 106.071 126.791 116.75 121.15L131 127.54V117.48C153.76 120.99 166.13 134.96 168 159.48L170.71 178.73L145 183.27L142.2 166.18L136.93 222.55L140.55 238V251.73C107.583 252.29 78.0965 258.65 52.0898 270.81C52.4737 271.689 52.9568 272.521 53.5298 273.29C54.0098 273.21 54.4099 273.13 54.7999 273.05C86.8998 264.583 118.333 260.75 149.1 261.55L152.77 254.45L149.5 239L146.22 233.89L145 184.46C153.976 185.871 163.096 186.14 172.14 185.26V190.53L148.14 193.53L148.78 195.44L177 193.33L177.88 184.46L171.97 147.46C169.017 129.18 157.813 118.057 138.36 114.09L126.3 110.17C127.551 114.28 128.039 118.584 127.74 122.87L116.88 115.6L116.84 115.56Z" fill="#1D51FD"/>
<path d="M99.3594 127.78L116.839 115.56L127.699 122.83C127.999 118.544 127.511 114.24 126.259 110.13C124.857 105.909 122.284 102.174 118.839 99.3601L113.569 97.6001L113.089 115.32C107.839 118.665 103.196 122.878 99.3594 127.78Z" fill="#F5F6FA"/>
<path d="M73.8087 130.33L60.5487 138.08C57.2092 132.455 56.2076 125.745 57.7587 119.39L37.7587 132.33C27.252 138.157 22.6653 158.197 23.9987 192.45L43.7187 190.53L41.1587 150.69C49.3096 163.954 53.2624 179.371 52.4987 194.92V195C52.4407 195.125 52.4132 195.262 52.4187 195.4V195.64L53.5387 236.92L49.9987 256.56C49.4487 262.15 50.0887 266.94 52.0787 270.85C78.0787 258.724 107.565 252.364 140.539 251.77V238L136.869 222.51L142.139 166.14L144.939 183.23L170.639 178.68L167.929 159.43C166.089 134.92 153.719 120.95 130.929 117.43V127.49L116.719 121.1C106.04 126.742 97.1808 135.296 91.1687 145.77C87.8187 138.19 81.9887 133 73.7687 130.28L73.8087 130.33ZM55.8087 122.51C55.6204 123.663 55.55 124.833 55.5987 126C39.8787 135.18 31.0887 146 29.2587 158.42V190.42L25.4187 190.82C24.312 158.334 28.6787 139.28 38.5187 133.66C38.5187 133.58 38.5187 133.58 38.5987 133.58L55.7587 122.48L55.8087 122.51Z" fill="#1D51FD"/>
<path d="M55.6002 126C55.5337 124.828 55.5873 123.652 55.7602 122.49L38.6002 133.61C38.5202 133.61 38.5202 133.61 38.5202 133.69C28.7002 139.277 24.3335 158.33 25.4202 190.85L29.2602 190.45V158.45C31.0902 146.06 39.8802 135.2 55.6002 126Z" fill="#B5D0FF"/>
<path d="M61.4301 131.69L71.7301 125.78C77.7301 126.78 84.0301 131.05 90.4901 138.64L88.8201 135.76C84.2179 128.47 78.3488 122.063 71.4901 116.84L76.2801 110.05V102.71C72.3716 104.627 68.8522 107.251 65.9001 110.45C64.1413 112.281 62.7346 114.42 61.7501 116.76C59.7501 121.31 59.6001 126.26 61.4301 131.69Z" fill="#F5F6FA"/>
<path d="M52.25 195.56L52.09 195C52.2286 195.021 52.3701 194.993 52.49 194.92C53.2537 179.371 49.301 163.954 41.15 150.69L43.71 190.53L24 192.45C24 193.45 24 194.45 24.08 195.45L25.43 195.69C32.0388 196.812 38.775 196.974 45.43 196.17V201.12L24.52 200.56L24.6 203.04L47.6 204.04L52.31 195.65L52.25 195.56Z" fill="#1D51FD"/>
<path d="M172.089 190.53V185.26C163.045 186.14 153.926 185.871 144.949 184.46L148.139 193.46L172.139 190.46L172.089 190.53Z" fill="#E6E6E6"/>
<path d="M149.74 198.2L168.82 202.91C175.52 225.577 175.854 255.703 169.82 293.29L173 318L168.61 332.85L175.31 320.15C174.197 306.604 175.059 292.968 177.87 279.67C183.87 252.69 184.27 229.537 179.07 210.21L177 193.33L148.82 195.4L149.82 198.2H149.74Z" fill="#73492F"/>
</g>
</svg>
