<svg width="71" height="71" viewBox="0 0 71 71" fill="none" xmlns="http://www.w3.org/2000/svg">
<g clip-path="url(#clip0)">
<path d="M16.4384 20.1172C18.7818 20.1172 20.6814 18.2273 20.6814 15.896C20.6814 13.5647 18.7818 11.6748 16.4384 11.6748C14.095 11.6748 12.1953 13.5647 12.1953 15.896C12.1953 18.2273 14.095 20.1172 16.4384 20.1172Z" stroke="#B5D0FF" stroke-width="2" stroke-miterlimit="10"/>
<path d="M29.4446 14.5859L26.0391 17.9739" stroke="#B5D0FF" stroke-width="2" stroke-miterlimit="10"/>
<path d="M43.2492 28.3213L39.8438 31.7092" stroke="#B5D0FF" stroke-width="2" stroke-miterlimit="10"/>
<path d="M57.0539 42.0557L53.6484 45.4436" stroke="#B5D0FF" stroke-width="2" stroke-miterlimit="10"/>
<path d="M35.3064 20.4287L30.3086 25.6571" stroke="#B5D0FF" stroke-width="2" stroke-miterlimit="10"/>
<path d="M49.1111 34.1631L44.1133 39.3915" stroke="#B5D0FF" stroke-width="2" stroke-miterlimit="10"/>
<path d="M55.9883 5.75L66.1772 15.8955" stroke="#B5D0FF" stroke-width="2" stroke-miterlimit="10"/>
<path d="M3.10938 64.6084C3.10938 64.6084 7.05791 65.231 6.52408 68.0055" stroke="#B5D0FF" stroke-width="2" stroke-miterlimit="10"/>
<path d="M1.42578 15.8683L16.0786 1.29102L69.7106 54.6555L55.4719 69.2785L1.42578 15.8683Z" stroke="#1D51FD" stroke-width="2" stroke-miterlimit="10"/>
<path d="M51.8186 30.1797L68.1834 13.8993C70.1163 11.9765 70.1071 8.84492 68.1466 6.94036L64.8792 3.75387C62.9555 1.87678 59.863 1.89509 57.9577 3.7905L42.3477 19.32" stroke="#1D51FD" stroke-width="2" stroke-miterlimit="10"/>
<path d="M20.11 41.4424L6.2487 55.2322L1.42578 69.6354L16.4376 65.3776L29.4429 52.4394" stroke="#1D51FD" stroke-width="2" stroke-miterlimit="10"/>
<path d="M47.1875 24.1456L60.6162 10.7861" stroke="#1D51FD" stroke-width="2" stroke-miterlimit="10"/>
<path d="M10.8594 60.2776L24.6931 46.5244" stroke="#1D51FD" stroke-width="2" stroke-miterlimit="10"/>
<path d="M6.25 55.2324L16.4389 65.3779" stroke="#1D51FD" stroke-width="2" stroke-miterlimit="10"/>
</g>
<defs>
<clipPath id="clip0">
<rect width="71" height="71" fill="white"/>
</clipPath>
</defs>
</svg>
