<svg width="72" height="72" viewBox="0 0 72 72" fill="none" xmlns="http://www.w3.org/2000/svg">
<path d="M36.0011 71.1144C55.3942 71.1144 71.1155 55.3931 71.1155 36C71.1155 16.6069 55.3942 0.885612 36.0011 0.885612C16.608 0.885612 0.886719 16.6069 0.886719 36C0.886719 55.3931 16.608 71.1144 36.0011 71.1144Z" stroke="#1D51FD" stroke-width="2" stroke-miterlimit="10"/>
<path d="M36.0029 59.0967C48.7589 59.0967 59.0996 48.7559 59.0996 36C59.0996 23.2441 48.7589 12.9033 36.0029 12.9033C23.247 12.9033 12.9062 23.2441 12.9062 36C12.9062 48.7559 23.247 59.0967 36.0029 59.0967Z" stroke="#B5D0FF" stroke-width="2" stroke-miterlimit="10"/>
<path d="M36.0019 45.9277C41.4848 45.9277 45.9296 41.4829 45.9296 36C45.9296 30.5171 41.4848 26.0723 36.0019 26.0723C30.519 26.0723 26.0742 30.5171 26.0742 36C26.0742 41.4829 30.519 45.9277 36.0019 45.9277Z" stroke="#1D51FD" stroke-width="2" stroke-miterlimit="10"/>
<path d="M29.4653 33.91C31.9206 33.91 33.911 31.9195 33.911 29.4642C33.911 27.0089 31.9206 25.0185 29.4653 25.0185C27.01 25.0185 25.0195 27.0089 25.0195 29.4642C25.0195 31.9195 27.01 33.91 29.4653 33.91Z" fill="white" stroke="#1D51FD" stroke-width="2" stroke-miterlimit="10"/>
<path d="M14.5852 56.6258H7.06641V64.1447H14.5852V56.6258Z" fill="white" stroke="#1D51FD" stroke-width="2" stroke-miterlimit="10"/>
<path d="M59.0427 33.6886L54.1719 42.1284H63.9136L59.0427 33.6886Z" fill="white" stroke="#B5D0FF" stroke-width="2" stroke-miterlimit="10"/>
</svg>
