<svg width="77" height="72" viewBox="0 0 77 72" fill="none" xmlns="http://www.w3.org/2000/svg">
<path d="M56.2275 65.8125C64.3743 65.8125 70.9785 59.2535 70.9785 51.1626C70.9785 43.0717 64.3743 36.5127 56.2275 36.5127C48.0808 36.5127 41.4766 43.0717 41.4766 51.1626C41.4766 59.2535 48.0808 65.8125 56.2275 65.8125Z" stroke="#B5D0FF" stroke-width="2" stroke-miterlimit="10"/>
<path d="M0.867188 12.7891H62.5088" stroke="#1D51FD" stroke-width="2" stroke-miterlimit="10" stroke-linecap="square" stroke-linejoin="round"/>
<path d="M9.68359 25.0859H53.3204" stroke="#B5D0FF" stroke-width="2" stroke-miterlimit="10"/>
<path d="M9.68359 36.0303H36.3308" stroke="#B5D0FF" stroke-width="2" stroke-miterlimit="10"/>
<path d="M66.4844 61.6934L76.3849 71.526" stroke="#B5D0FF" stroke-width="2" stroke-miterlimit="10"/>
<path d="M62.9687 31.0582V3.99031C62.9687 2.33573 61.6238 1 59.9578 1H3.87812C2.21213 1 0.867188 2.33573 0.867188 3.99031V48.4916C0.867188 50.1461 2.21213 51.4819 3.87812 51.4819H32.9982" stroke="#1D51FD" stroke-width="2" stroke-miterlimit="10" stroke-linecap="square" stroke-linejoin="round"/>
</svg>
