<svg width="29" height="35" viewBox="0 0 29 35" fill="none" xmlns="http://www.w3.org/2000/svg">
<path d="M15.3826 31.4694H2.58847C1.97082 31.4694 1.44141 30.9392 1.44141 30.3206V3.59015C1.44141 2.9716 1.97082 2.44141 2.58847 2.44141H14.9414" stroke="#1D51FD" stroke-width="1.4" stroke-miterlimit="10" stroke-linecap="round" stroke-linejoin="round"/>
<path d="M14.9414 2.44141C14.9414 2.44141 22.0443 8.67116 22.1326 8.75952V16.5798" stroke="#1D51FD" stroke-width="1.4" stroke-miterlimit="10" stroke-linecap="round" stroke-linejoin="round"/>
<path d="M14.9414 2.44141V9.77572H22.1326" stroke="#1D51FD" stroke-width="1.4" stroke-miterlimit="10" stroke-linecap="round" stroke-linejoin="round"/>
<path d="M21.9565 31.5583C25.0509 31.5583 27.5594 29.0461 27.5594 25.9471C27.5594 22.8482 25.0509 20.3359 21.9565 20.3359C18.862 20.3359 16.3535 22.8482 16.3535 25.9471C16.3535 29.0461 18.862 31.5583 21.9565 31.5583Z" stroke="#1D51FD" stroke-width="1.4" stroke-miterlimit="10" stroke-linecap="round" stroke-linejoin="round"/>
<path d="M19.8828 26.3873L21.5152 27.4919L24.2946 24.0898" stroke="#1D51FD" stroke-width="1.4" stroke-miterlimit="10" stroke-linecap="round" stroke-linejoin="round"/>
<path d="M5.36719 12.7812H11.9848" stroke="#1D51FD" stroke-width="1.4" stroke-miterlimit="10" stroke-linecap="round" stroke-linejoin="round"/>
<path d="M5.36719 17.1992H15.5142" stroke="#1D51FD" stroke-width="1.4" stroke-miterlimit="10" stroke-linecap="round" stroke-linejoin="round"/>
<path d="M5.36719 21.6172H12.8672" stroke="#1D51FD" stroke-width="1.4" stroke-miterlimit="10" stroke-linecap="round" stroke-linejoin="round"/>
</svg>
