<svg width="72" height="72" viewBox="0 0 72 72" fill="none" xmlns="http://www.w3.org/2000/svg">
<path d="M27.1312 13H43.7312" stroke="#1D51FD" stroke-width="2" stroke-miterlimit="10" stroke-linecap="round" stroke-linejoin="round"/>
<path d="M49.2312 20.8V14.7C49.2312 7.2 43.0312 1 35.5312 1C28.0312 1 21.8312 7.2 21.8312 14.7V20.8" stroke="#B5D0FF" stroke-width="2" stroke-miterlimit="10" stroke-linecap="round" stroke-linejoin="round"/>
<path d="M49.2312 27C50.9433 27 52.3312 25.6121 52.3312 23.9C52.3312 22.188 50.9433 20.8 49.2312 20.8C47.5191 20.8 46.1312 22.188 46.1312 23.9C46.1312 25.6121 47.5191 27 49.2312 27Z" stroke="#B5D0FF" stroke-width="2" stroke-miterlimit="10" stroke-linecap="round" stroke-linejoin="round"/>
<path d="M21.8313 27C23.5433 27 24.9313 25.6121 24.9313 23.9C24.9313 22.188 23.5433 20.8 21.8313 20.8C20.1192 20.8 18.7313 22.188 18.7313 23.9C18.7313 25.6121 20.1192 27 21.8313 27Z" stroke="#B5D0FF" stroke-width="2" stroke-miterlimit="10" stroke-linecap="round" stroke-linejoin="round"/>
<path d="M7.93121 60H63.9312" stroke="#B5D0FF" stroke-width="2" stroke-miterlimit="10" stroke-linecap="round" stroke-linejoin="round"/>
<path d="M55.5136 13C57.5253 13 59.3358 14.4846 59.537 16.5631L64.9686 66.645C65.2703 69.0205 63.3592 71 60.9452 71H11.0548C8.64079 71 6.72967 68.9215 7.03143 66.5461L13.3683 15.2765C13.5695 13.9898 14.6759 13 15.9835 13" stroke="#1D51FD" stroke-width="2" stroke-miterlimit="10" stroke-linecap="round" stroke-linejoin="round"/>
</svg>
