<svg width="72" height="72" viewBox="0 0 72 72" fill="none" xmlns="http://www.w3.org/2000/svg">
<path d="M38.3078 42.4532C35.7078 41.3532 32.8078 42.5532 31.7078 45.1532C30.6078 47.7532 31.8078 50.6532 34.4078 51.7532L32.0078 57.3532L37.2078 59.5532C36.1078 62.1532 37.3078 65.0532 39.9078 66.1532C42.5078 67.2532 45.4078 66.0532 46.5078 63.4532L50.9078 65.3532C51.8078 65.7532 52.9078 65.3532 53.3078 64.3532L59.5 50.5" stroke="#1D51FD" stroke-width="2" stroke-miterlimit="10" stroke-linecap="round" stroke-linejoin="round"/>
<path d="M46.5078 39.0533C47.6078 36.4533 50.5078 35.2533 53.1078 36.3533C55.7078 37.4533 56.9078 40.3533 55.8078 42.9533L61.5078 45.3533L63.6078 40.3533C66.2078 41.4533 69.1078 40.2533 70.2078 37.6533C71.3078 35.0533 70.1078 32.1533 67.5078 31.0533L69.5078 26.2533C69.9078 25.3533 69.5078 24.2533 68.5078 23.8533L64.1078 21.9533C65.2078 19.3533 64.0078 16.4533 61.4078 15.3533C58.8078 14.2533 55.9078 15.4533 54.8078 18.0533L49.6078 15.8533L40.8078 36.6533L46.5078 39.0533Z" stroke="#B5D0FF" stroke-width="2" stroke-miterlimit="10" stroke-linecap="round" stroke-linejoin="round"/>
<path d="M5.10783 40.2533L3.40783 44.2533C3.00783 45.1533 3.40783 46.2533 4.40783 46.6533L23.3078 54.6533L25.7078 48.8533C23.1078 47.7533 21.9078 44.8533 23.0078 42.2533C24.1078 39.6533 27.0078 38.4533 29.6078 39.5533L32.0078 33.7533L40.8078 12.9533L22.0078 5.15328C21.1078 4.75328 20.0078 5.15328 19.6078 6.15328L11.5078 25.2533L9.00783 31.0533C6.40783 29.9533 3.50783 31.1533 2.40783 33.7533C1.30783 36.2533 2.50783 39.1533 5.10783 40.2533Z" stroke="#1D51FD" stroke-width="2" stroke-miterlimit="10" stroke-linecap="round" stroke-linejoin="round"/>
</svg>
