<svg width="73" height="72" viewBox="0 0 73 72" fill="none" xmlns="http://www.w3.org/2000/svg">
<path d="M34.0246 64C21.0285 55.0402 15.1211 38.7134 19.3547 23.3821L23.096 9.64368C23.5883 7.75215 25.5574 6.55751 27.4281 7.15483L68.3855 18.504C70.2561 19.0017 71.4376 20.9928 70.8469 22.8843L67.1056 36.6227C62.9704 51.954 49.679 62.9049 34.0246 64Z" stroke="#1D51FD" stroke-width="2" stroke-miterlimit="10" stroke-linecap="round" stroke-linejoin="round"/>
<path d="M40.52 29.0555C40.52 29.0555 35.92 31.1555 32.02 29.4555C28.12 27.7555 26.52 22.9555 26.52 22.9555C26.52 22.9555 31.12 20.8555 35.02 22.5555C38.82 24.2555 40.52 29.0555 40.52 29.0555Z" stroke="#B5D0FF" stroke-width="2" stroke-miterlimit="10" stroke-linecap="round" stroke-linejoin="round"/>
<path d="M46.02 30.5556C46.02 30.5556 48.92 34.6556 53.12 35.1556C57.32 35.6556 61.12 32.3556 61.12 32.3556C61.12 32.3556 58.22 28.2556 54.02 27.7556C49.82 27.2556 46.02 30.5556 46.02 30.5556Z" stroke="#B5D0FF" stroke-width="2" stroke-miterlimit="10" stroke-linecap="round" stroke-linejoin="round"/>
<path d="M49.32 48.6556C49.32 48.6556 37.42 50.1556 28.32 42.9556C28.32 42.9556 28.82 54.1556 36.02 56.1556C43.22 58.1556 49.32 48.6556 49.32 48.6556Z" stroke="#B5D0FF" stroke-width="2" stroke-miterlimit="10" stroke-linecap="round" stroke-linejoin="round"/>
<path d="M14.9729 15L3.54735 18.4079C1.6743 18.9091 0.644125 20.9138 1.11239 22.8182L4.67118 36.6504C6.91884 45.5711 12.1634 53.0886 19 58" stroke="#B5D0FF" stroke-width="2" stroke-miterlimit="10" stroke-linecap="round" stroke-linejoin="round"/>
</svg>
