<svg width="80" height="68" viewBox="0 0 80 68" fill="none" xmlns="http://www.w3.org/2000/svg">
<g clip-path="url(#clip0)">
<path d="M0.828125 32.6738H29.2755" stroke="#1D51FD" stroke-width="2" stroke-miterlimit="10" stroke-linecap="square" stroke-linejoin="round"/>
<path d="M28.7628 24.1182H3.89614C2.20088 24.1182 0.828125 25.5078 0.828125 27.2239V56.4062C0.828125 58.1224 2.20088 59.512 3.89614 59.512H36.7595C38.4548 59.512 39.8275 58.1224 39.8275 56.4062V42.5434" stroke="#1D51FD" stroke-width="2" stroke-miterlimit="10" stroke-linecap="square" stroke-linejoin="round"/>
<path d="M26.8945 45.8916H34.3041" stroke="#B5D0FF" stroke-width="2" stroke-miterlimit="10"/>
<path d="M26.8945 53.167H34.3041" stroke="#B5D0FF" stroke-width="2" stroke-miterlimit="10"/>
<path d="M21.7255 37.4033H5.77344V53.1665H21.7255V37.4033Z" stroke="#B5D0FF" stroke-width="2" stroke-miterlimit="10"/>
<path d="M35.1289 9.40039H74.1366" stroke="#1D51FD" stroke-width="2" stroke-miterlimit="10" stroke-linecap="square" stroke-linejoin="round"/>
<path d="M38.2048 36.2391H71.0681C72.7634 36.2391 74.1361 34.8495 74.1361 33.1334V3.94266C74.1361 2.22655 72.7634 0.836914 71.0681 0.836914H38.2048C36.5095 0.836914 35.1368 2.22655 35.1368 3.94266V33.125C35.1285 34.8411 36.5012 36.2391 38.2048 36.2391Z" stroke="#1D51FD" stroke-width="2" stroke-miterlimit="10" stroke-linecap="square" stroke-linejoin="round"/>
<path d="M62.0234 18.3408H69.433" stroke="#B5D0FF" stroke-width="2" stroke-miterlimit="10"/>
<path d="M40.0742 18.3408H58.9785" stroke="#B5D0FF" stroke-width="2" stroke-miterlimit="10"/>
<path d="M57.7305 24.1172H69.4319" stroke="#B5D0FF" stroke-width="2" stroke-miterlimit="10"/>
<path d="M40.0742 24.1172H54.7693" stroke="#B5D0FF" stroke-width="2" stroke-miterlimit="10"/>
<path d="M62.0234 29.8857H69.433" stroke="#B5D0FF" stroke-width="2" stroke-miterlimit="10"/>
<path d="M40.0742 29.8857H58.9785" stroke="#B5D0FF" stroke-width="2" stroke-miterlimit="10"/>
<path d="M12.0078 18.4255V7.79395H29.2747" stroke="#B5D0FF" stroke-width="2" stroke-miterlimit="10"/>
<path d="M57.7302 41.8145V54.0784H46.0039" stroke="#B5D0FF" stroke-width="2" stroke-miterlimit="10"/>
</g>
<defs>
<clipPath id="clip0">
<rect width="80" height="68" fill="white"/>
</clipPath>
</defs>
</svg>
