<svg width="72" height="72" viewBox="0 0 72 72" fill="none" xmlns="http://www.w3.org/2000/svg">
<path d="M35.7 47.0999C45.4754 47.0999 53.4 39.1754 53.4 29.4C53.4 19.6245 45.4754 11.7 35.7 11.7C25.9246 11.7 18 19.6245 18 29.4C18 39.1754 25.9246 47.0999 35.7 47.0999Z" stroke="#B5D0FF" stroke-width="2" stroke-miterlimit="10" stroke-linecap="round" stroke-linejoin="round"/>
<path d="M44 56.6001L57.6 70.2001V58.7001H70.4L58.3 46.6001" stroke="#1D51FD" stroke-width="2" stroke-miterlimit="10" stroke-linecap="round" stroke-linejoin="round"/>
<path d="M27.4 56.6001L13.8 70.2001V58.7001H1L13.1 46.6001" stroke="#1D51FD" stroke-width="2" stroke-miterlimit="10" stroke-linecap="round" stroke-linejoin="round"/>
<path d="M11.7 29.3999H27.4" stroke="#B5D0FF" stroke-width="2" stroke-miterlimit="10" stroke-linecap="round" stroke-linejoin="round"/>
<path d="M35.7 53.4V37.7" stroke="#B5D0FF" stroke-width="2" stroke-miterlimit="10" stroke-linecap="round" stroke-linejoin="round"/>
<path d="M59.7 29.3999H44" stroke="#B5D0FF" stroke-width="2" stroke-miterlimit="10" stroke-linecap="round" stroke-linejoin="round"/>
<path d="M35.8 5.3999V21.0999" stroke="#B5D0FF" stroke-width="2" stroke-miterlimit="10" stroke-linecap="round" stroke-linejoin="round"/>
<path d="M35.7001 57.8C51.3849 57.8 64.1 45.0849 64.1 29.4C64.1 13.7151 51.3849 1 35.7001 1C20.0152 1 7.30005 13.7151 7.30005 29.4C7.30005 45.0849 20.0152 57.8 35.7001 57.8Z" stroke="#1D51FD" stroke-width="2" stroke-miterlimit="10" stroke-linecap="round" stroke-linejoin="round"/>
</svg>
