<svg width="211" height="38" viewBox="0 0 211 38" fill="none" xmlns="http://www.w3.org/2000/svg">
<path d="M34.7178 36.4698H43.0006L22.2936 0L16.9733 9.37884C16.006 11.0855 16.006 13.1919 16.9733 14.9139L26.4502 31.6267C28.1581 34.6248 31.3171 36.4698 34.7178 36.4698Z" fill="white"/>
<path d="M6.84691 24.4001L0 36.4696H10.8523C12.6811 36.4696 14.3589 35.4856 15.2657 33.8712L19.8304 25.83C20.1931 25.1843 19.7397 24.3848 19.0142 24.3848H6.84691V24.4001Z" fill="url(#paint0_linear)"/>
<path d="M64.2522 32.3341L62.7709 36.2394C62.6349 36.6084 62.2873 36.8544 61.8943 36.8544H55.7124L66.2019 11.6085C66.5042 10.9012 67.1844 10.4399 67.9401 10.4399H72.807L83.7349 36.8544H80.1527C78.218 36.8544 76.4647 35.6398 75.7544 33.8102L75.18 32.3341H64.2522ZM69.7236 18.0353L66.3833 26.7683H73.064L69.7236 18.0353Z" fill="white"/>
<path d="M92.9394 29.2435V35.901C92.9394 36.4237 92.5161 36.8542 92.0022 36.8542H86.5308V10.5781H97.8516C104.23 10.5781 108.522 14.1298 108.522 19.8186C108.522 23.4932 106.663 26.3838 103.58 27.9674L110.23 36.8542H104.85C103.353 36.8542 101.948 36.1316 101.056 34.917L96.9296 29.2435H92.9394ZM97.6853 23.3702C100.149 23.3702 102.129 21.9865 102.129 19.8186C102.129 17.6968 100.149 16.3438 97.6853 16.3438H92.9394V23.3702H97.6853Z" fill="white"/>
<path d="M119.873 32.3339L118.392 36.2392C118.256 36.6082 117.908 36.8542 117.515 36.8542H111.333L121.823 11.5928C122.125 10.8856 122.805 10.4243 123.561 10.4243H128.428L139.356 36.8542H135.774C133.839 36.8542 132.086 35.6395 131.375 33.8099L130.801 32.3339H119.873ZM125.345 18.035L122.004 26.7681H128.685L125.345 18.035Z" fill="white"/>
<path d="M151.207 16.4207V36.8542H144.798V16.4207H136.561V12.5C136.561 11.4391 137.407 10.5781 138.45 10.5781H159.429V16.4053H151.207V16.4207Z" fill="white"/>
<path d="M168.724 21.064H180.151V26.6298H168.724V31.1962H181.828V36.8696H163.253C162.739 36.8696 162.315 36.4391 162.315 35.9164V12.5C162.315 11.4391 163.162 10.5781 164.205 10.5781H181.828V16.2516H168.724V21.064Z" fill="white"/>
<path d="M203.261 18.3116C202.777 17.4045 202.082 16.728 201.19 16.2514C200.284 15.7748 199.241 15.5287 198.016 15.5287C195.915 15.5287 194.223 16.236 192.968 17.6351C191.698 19.0343 191.064 20.91 191.064 23.2624C191.064 25.7532 191.729 27.7059 193.059 29.1204C194.389 30.5195 196.218 31.2268 198.545 31.2268C200.147 31.2268 201.493 30.8116 202.596 29.9968C203.699 29.1665 204.501 27.9826 205.014 26.4451H196.777V23.4931C196.777 22.4322 197.623 21.5712 198.666 21.5712H210.909V27.7212C210.425 29.3664 209.609 30.9039 208.461 32.3184C207.312 33.7329 205.846 34.8861 204.077 35.7624C202.309 36.6388 200.299 37.0693 198.077 37.0693C195.447 37.0693 193.089 36.4851 191.033 35.3166C188.963 34.148 187.361 32.5183 186.212 30.4273C185.063 28.3362 184.489 25.9531 184.489 23.2778C184.489 20.6025 185.063 18.204 186.212 16.113C187.361 14.0066 188.963 12.3768 191.018 11.2083C193.074 10.0398 195.417 9.45557 198.047 9.45557C201.236 9.45557 203.926 10.2397 206.118 11.808C208.309 13.3762 209.76 15.5595 210.471 18.3424H203.261V18.3116Z" fill="white"/>
<defs>
<linearGradient id="paint0_linear" x1="3.79514" y1="33.9507" x2="28.6234" y2="19.3277" gradientUnits="userSpaceOnUse">
<stop stop-color="white"/>
<stop offset="0.7419" stop-color="#B5CBEF" stop-opacity="0"/>
</linearGradient>
</defs>
</svg>
