<svg width="168" height="29" viewBox="0 0 168 29" fill="none" xmlns="http://www.w3.org/2000/svg">
<path d="M27.8277 27.8673H34.2369L18.2138 0L14.0969 7.16655C13.3484 8.47062 13.3484 10.0802 14.0969 11.396L21.4301 24.1665C22.7517 26.4575 25.1962 27.8673 27.8277 27.8673Z" fill="#8D96B2"/>
<path d="M5.46304 18.3249L0 27.8672H8.65885C10.1181 27.8672 11.4567 27.0893 12.1803 25.8129L15.8223 19.4554C16.1117 18.9448 15.7499 18.3127 15.1711 18.3127H5.46304V18.3249Z" fill="url(#paint0_linear)"/>
<path d="M51.3816 25.1208L50.2032 28.1815C50.095 28.4707 49.8184 28.6635 49.5058 28.6635H44.5876L52.9328 8.87781C53.1733 8.32353 53.7144 7.96204 54.3156 7.96204H58.1876L66.8815 28.6635H64.0316C62.4925 28.6635 61.0976 27.7115 60.5324 26.2776L60.0755 25.1208H51.3816ZM55.7346 13.9146L53.0771 20.7588H58.392L55.7346 13.9146Z" fill="#8D96B2"/>
<path d="M74.2221 22.6674V27.9124C74.2221 28.3243 73.8951 28.6635 73.498 28.6635H69.2701V7.96204H78.0178C82.9463 7.96204 86.2632 10.7602 86.2632 15.2421C86.2632 18.1371 84.8267 20.4144 82.4441 21.662L87.5829 28.6635H83.4252C82.269 28.6635 81.1828 28.0941 80.4937 27.1372L77.3053 22.6674H74.2221ZM77.8893 18.0402C79.793 18.0402 81.323 16.95 81.323 15.2421C81.323 13.5704 79.793 12.5045 77.8893 12.5045H74.2221V18.0402H77.8893Z" fill="#8D96B2"/>
<path d="M95.9693 25.1229L94.7908 28.1817C94.6826 28.4708 94.4061 28.6635 94.0934 28.6635H89.1753L97.5205 8.87728C97.7609 8.32332 98.3021 7.96204 98.9033 7.96204H102.775L111.469 28.6635H108.619C107.08 28.6635 105.685 27.7121 105.12 26.279L104.663 25.1229H95.9693ZM100.322 13.9232L97.6648 20.7634H102.98L100.322 13.9232Z" fill="#8D96B2"/>
<path d="M120.809 12.565V28.6635H115.677V12.565H109.081V9.47618C109.081 8.64037 109.758 7.96204 110.594 7.96204H127.393V12.5529H120.809V12.565Z" fill="#8D96B2"/>
<path d="M134.216 16.2184H143.541V20.6008H134.216V24.1963H144.91V28.6635H129.751C129.331 28.6635 128.986 28.3245 128.986 27.9129V9.4753C128.986 8.63998 129.677 7.96204 130.528 7.96204H144.91V12.4292H134.216V16.2184Z" fill="#8D96B2"/>
<path d="M162.007 14.0605C161.629 13.3542 161.084 12.8276 160.385 12.4565C159.674 12.0855 158.857 11.8939 157.898 11.8939C156.252 11.8939 154.925 12.4445 153.942 13.5338C152.948 14.623 152.45 16.0833 152.45 17.9147C152.45 19.8538 152.971 21.374 154.014 22.4752C155.056 23.5644 156.489 24.115 158.312 24.115C159.568 24.115 160.622 23.7918 161.486 23.1574C162.351 22.5111 162.979 21.5894 163.381 20.3924H156.927V18.0943C156.927 17.2683 157.59 16.598 158.407 16.598H168V21.3859C167.621 22.6667 166.982 23.8637 166.081 24.9649C165.181 26.0661 164.033 26.9638 162.647 27.6461C161.261 28.3284 159.686 28.6635 157.945 28.6635C155.885 28.6635 154.037 28.2087 152.427 27.299C150.804 26.3893 149.549 25.1205 148.649 23.4926C147.749 21.8647 147.299 20.0094 147.299 17.9267C147.299 15.8439 147.749 13.9767 148.649 12.3488C149.549 10.7089 150.804 9.44014 152.415 8.53044C154.025 7.62074 155.861 7.16589 157.922 7.16589C160.421 7.16589 162.529 7.77635 164.246 8.99726C165.963 10.2182 167.1 11.9179 167.657 14.0844H162.007V14.0605Z" fill="#8D96B2"/>
<defs>
<linearGradient id="paint0_linear" x1="3.02808" y1="25.8757" x2="22.7443" y2="14.1568" gradientUnits="userSpaceOnUse">
<stop stop-color="#8D96B2"/>
<stop offset="0.7419" stop-color="#B5CBEF" stop-opacity="0"/>
</linearGradient>
</defs>
</svg>
