<svg width="72" height="72" viewBox="0 0 72 72" fill="none" xmlns="http://www.w3.org/2000/svg">
<path d="M61.401 33.8611C61.5008 33.1806 61.5008 32.5972 61.6007 31.9167C61.7005 23.1667 62 15 62 15C62 15 47.5237 14.5139 47.5237 1.97222C47.5237 1.97222 37.5401 1 31.5499 1C25.5597 1 15.5761 1.97222 15.5761 1.97222C15.4763 14.5139 1 14.9028 1 14.9028C1 14.9028 1.29951 23.0694 1.39935 31.8194C3.1964 63.0278 31.4501 71 31.4501 71C31.4501 71 33.6465 70.4167 36.9411 68.7639" stroke="#1D51FD" stroke-width="2" stroke-miterlimit="10" stroke-linecap="round" stroke-linejoin="round"/>
<path d="M52.2 33.7999C52.2 33.5999 52.2 33.3999 52.2 33.0999C52.3 26.8999 52.5 21.1 52.5 21.1C52.5 21.1 42.5 20.8 42.5 11.9C42.5 11.9 35.6 11.2 31.5 11.2C27.4 11.2 20.5 11.9 20.5 11.9C20.5 20.8 10.5 21.1 10.5 21.1C10.5 21.1 10.7 26.8999 10.8 33.0999C12 55.0999 31.5 60.7999 31.5 60.7999C31.5 60.7999 32.5 60.4999 34.1 59.7999" stroke="#B5D0FF" stroke-width="2" stroke-miterlimit="10" stroke-linecap="round" stroke-linejoin="round"/>
<path d="M55.5 71C64.0604 71 71 64.0604 71 55.5C71 46.9396 64.0604 40 55.5 40C46.9396 40 40 46.9396 40 55.5C40 64.0604 46.9396 71 55.5 71Z" stroke="#B5D0FF" stroke-width="2" stroke-miterlimit="10" stroke-linecap="round" stroke-linejoin="round"/>
<path d="M50 55.2L54.7 59.8L62.5 52" stroke="#1D51FD" stroke-width="2" stroke-miterlimit="10" stroke-linecap="round" stroke-linejoin="round"/>
</svg>
