<svg width="72" height="72" viewBox="0 0 72 72" fill="none" xmlns="http://www.w3.org/2000/svg">
<path d="M70.8061 35.5969L56.748 49.4592L50.9308 43.7398" stroke="#B5D0FF" stroke-width="2" stroke-miterlimit="10" stroke-linecap="round" stroke-linejoin="round"/>
<path d="M56.8449 63.5153C70.9031 55.8572 71 48.0051 71 48.0051V33.1735C63.5346 33.8521 56.8449 29.0051 56.8449 29.0051C56.8449 29.0051 50.1551 33.8521 42.6898 33.1735V48.1021C42.6898 48.0051 42.7867 55.8572 56.8449 63.5153Z" stroke="#B5D0FF" stroke-width="2" stroke-miterlimit="10" stroke-linecap="round" stroke-linejoin="round"/>
<path d="M1.38782 52.949H36.1939" stroke="#B5D0FF" stroke-width="2" stroke-miterlimit="10" stroke-linecap="round" stroke-linejoin="round"/>
<path d="M70.8061 35.5969L56.748 49.4592L50.9308 43.7398" stroke="#B5D0FF" stroke-width="2" stroke-miterlimit="10" stroke-linecap="round" stroke-linejoin="round"/>
<path d="M56.8449 63.5153C70.9031 55.8572 71 48.0051 71 48.0051V33.1735C63.5346 33.8521 56.8449 29.0051 56.8449 29.0051C56.8449 29.0051 50.1551 33.8521 42.6898 33.1735V48.1021C42.6898 48.0051 42.7867 55.8572 56.8449 63.5153Z" stroke="#B5D0FF" stroke-width="2" stroke-miterlimit="10" stroke-linecap="round" stroke-linejoin="round"/>
<path d="M70.8061 35.5969L56.748 49.4592L50.9308 43.7398" stroke="#B5D0FF" stroke-width="2" stroke-miterlimit="10" stroke-linecap="round" stroke-linejoin="round"/>
<path d="M56.8449 63.5153C70.9031 55.8572 71 48.0051 71 48.0051V33.1735C63.5346 33.8521 56.8449 29.0051 56.8449 29.0051C56.8449 29.0051 50.1551 33.8521 42.6898 33.1735V48.1021C42.6898 48.0051 42.7867 55.8572 56.8449 63.5153Z" stroke="#B5D0FF" stroke-width="2" stroke-miterlimit="10" stroke-linecap="round" stroke-linejoin="round"/>
<path d="M70.8061 35.5969L56.748 49.4592L50.9308 43.7398" stroke="#B5D0FF" stroke-width="2" stroke-miterlimit="10" stroke-linecap="round" stroke-linejoin="round"/>
<path d="M56.8449 63.5153C70.9031 55.8572 71 48.0051 71 48.0051V33.1735C63.5346 33.8521 56.8449 29.0051 56.8449 29.0051C56.8449 29.0051 50.1551 33.8521 42.6898 33.1735V48.1021C42.6898 48.0051 42.7867 55.8572 56.8449 63.5153Z" stroke="#B5D0FF" stroke-width="2" stroke-miterlimit="10" stroke-linecap="round" stroke-linejoin="round"/>
<path d="M70.8061 35.5969L56.748 49.4592L50.9308 43.7398" stroke="#B5D0FF" stroke-width="2" stroke-miterlimit="10" stroke-linecap="round" stroke-linejoin="round"/>
<path d="M56.8449 63.5153C70.9031 55.8572 71 48.0051 71 48.0051V33.1735C63.5346 33.8521 56.8449 29.0051 56.8449 29.0051C56.8449 29.0051 50.1551 33.8521 42.6898 33.1735V48.1021C42.6898 48.0051 42.7867 55.8572 56.8449 63.5153Z" stroke="#B5D0FF" stroke-width="2" stroke-miterlimit="10" stroke-linecap="round" stroke-linejoin="round"/>
<path d="M70.8061 35.5969L56.748 49.4592L50.9308 43.7398" stroke="#B5D0FF" stroke-width="2" stroke-miterlimit="10" stroke-linecap="round" stroke-linejoin="round"/>
<path d="M56.8449 63.5153C70.9031 55.8572 71 48.0051 71 48.0051V33.1735C63.5346 33.8521 56.8449 29.0051 56.8449 29.0051C56.8449 29.0051 50.1551 33.8521 42.6898 33.1735V48.1021C42.6898 48.0051 42.7867 55.8572 56.8449 63.5153Z" stroke="#B5D0FF" stroke-width="2" stroke-miterlimit="10" stroke-linecap="round" stroke-linejoin="round"/>
<path d="M70.8061 35.5969L56.748 49.4592L50.9308 43.7398" stroke="#B5D0FF" stroke-width="2" stroke-miterlimit="10" stroke-linecap="round" stroke-linejoin="round"/>
<path d="M56.8449 63.5153C70.9031 55.8572 71 48.0051 71 48.0051V33.1735C63.5346 33.8521 56.8449 29.0051 56.8449 29.0051C56.8449 29.0051 50.1551 33.8521 42.6898 33.1735V48.1021C42.6898 48.0051 42.7867 55.8572 56.8449 63.5153Z" stroke="#B5D0FF" stroke-width="2" stroke-miterlimit="10" stroke-linecap="round" stroke-linejoin="round"/>
<path d="M70.8061 35.5969L56.748 49.4592L50.9308 43.7398" stroke="#B5D0FF" stroke-width="2" stroke-miterlimit="10" stroke-linecap="round" stroke-linejoin="round"/>
<path d="M56.8449 63.5153C70.9031 55.8572 71 48.0051 71 48.0051V33.1735C63.5346 33.8521 56.8449 29.0051 56.8449 29.0051C56.8449 29.0051 50.1551 33.8521 42.6898 33.1735V48.1021C42.6898 48.0051 42.7867 55.8572 56.8449 63.5153Z" stroke="#1D51FD" stroke-width="2" stroke-miterlimit="10" stroke-linecap="round" stroke-linejoin="round"/>
<path d="M1 58.3776V12.6224C1 9.52041 3.52078 7 6.62327 7H50.349C53.4515 7 55.9723 9.52041 55.9723 12.6224V16.8878" stroke="#1D51FD" stroke-width="2" stroke-miterlimit="10" stroke-linecap="round" stroke-linejoin="round"/>
<path d="M41.4294 64H6.81717C3.71468 64 1 61.4796 1 58.3776" stroke="#1D51FD" stroke-width="2" stroke-miterlimit="10" stroke-linecap="round" stroke-linejoin="round"/>
<path d="M6.8172 16.9847H8.6593H59.3657C62.4682 16.9847 64.9889 19.5051 64.9889 22.6072V25.1276" stroke="#1D51FD" stroke-width="2" stroke-miterlimit="10" stroke-linecap="round" stroke-linejoin="round"/>
<path d="M6.62327 16.9847C3.52078 16.9847 1 14.6582 1 11.9439C1 9.22959 3.52078 7 6.62327 7" stroke="#1D51FD" stroke-width="2" stroke-miterlimit="10" stroke-linecap="round" stroke-linejoin="round"/>
</svg>
