<svg width="20" height="9" viewBox="0 0 20 9" fill="none" xmlns="http://www.w3.org/2000/svg">
<path fill-rule="evenodd" clip-rule="evenodd" d="M5.99749 8.91602H2.00592C0.886555 8.91602 0 8.02144 0 6.91791V2.91412C0 1.80272 0.89808 0.916016 2.00592 0.916016H5.99749C7.10345 0.916016 8 1.81072 8 2.91602H2.00592C1.99695 2.91602 2 6.91791 2 6.91791C2 6.92088 8 6.91602 8 6.91602C8 8.02059 7.10716 8.91602 5.99749 8.91602ZM17.9941 6.91602C18.0049 6.91602 18 2.91412 18 2.91412C18 2.91299 12 2.91602 12 2.91602C12 1.81145 12.8928 0.916016 14.0025 0.916016H17.9941C19.1019 0.916016 20 1.80272 20 2.91412V6.91791C20 8.02144 19.1134 8.91602 17.9941 8.91602H14.0025C12.8966 8.91602 12 8.02131 12 6.91602H17.9941ZM7.00293 3.91602H12.9971C13.5621 3.91602 14 4.36373 14 4.91602C14 5.47215 13.551 5.91602 12.9971 5.91602H7.00293C6.43788 5.91602 6 5.4683 6 4.91602C6 4.35988 6.44903 3.91602 7.00293 3.91602Z" fill="#C9CFE1"/>
</svg>
