<svg width="67" height="59" viewBox="0 0 67 59" fill="none" xmlns="http://www.w3.org/2000/svg">
<path d="M62.1944 57.5683H37.3056C35.35 57.5683 33.75 55.928 33.75 53.9231V5.44207C33.75 3.43721 35.35 1.79688 37.3056 1.79688H62.1944C64.15 1.79688 65.75 3.43721 65.75 5.44207V53.9231C65.75 55.928 64.15 57.5683 62.1944 57.5683Z" stroke="#1D51FD" stroke-width="2" stroke-miterlimit="10" stroke-linecap="round" stroke-linejoin="round"/>
<path d="M28.2643 57.5684H5.23872C3.31992 57.5684 1.75 56.0955 1.75 54.2544V20.6539C1.75 18.8127 3.31992 17.3398 5.23872 17.3398H27.5665" stroke="#1D51FD" stroke-width="2" stroke-miterlimit="10" stroke-linecap="round" stroke-linejoin="round"/>
<path d="M42.8008 9.65967H42.9836" stroke="#B5D0FF" stroke-width="2" stroke-miterlimit="10" stroke-linecap="round" stroke-linejoin="round"/>
<path d="M48.2891 9.65967H57.6148" stroke="#B5D0FF" stroke-width="2" stroke-miterlimit="10" stroke-linecap="round" stroke-linejoin="round"/>
<path d="M49.9322 50.4371C52.0024 50.4371 53.6807 48.7588 53.6807 46.6885C53.6807 44.6182 52.0024 42.9399 49.9322 42.9399C47.8619 42.9399 46.1836 44.6182 46.1836 46.6885C46.1836 48.7588 47.8619 50.4371 49.9322 50.4371Z" stroke="#B5D0FF" stroke-width="2" stroke-miterlimit="10" stroke-linecap="round" stroke-linejoin="round"/>
<path d="M1.75 50.6197V47.3282H2.75571C4.76714 47.3282 6.41286 45.8654 6.41286 44.0368V30.6882C6.41286 28.8597 4.76714 27.3968 2.75571 27.3968H1.75V24.9282" stroke="#1D51FD" stroke-width="2" stroke-miterlimit="10" stroke-linecap="round" stroke-linejoin="round"/>
</svg>
