<svg width="57" height="66" viewBox="0 0 57 66" fill="none" xmlns="http://www.w3.org/2000/svg">
<g clip-path="url(#clip0)">
<path d="M52.1475 57.6476C52.1475 61.8238 40.6511 65.2045 26.4683 65.2045C12.2855 65.2045 0.789062 61.8238 0.789062 57.6476" stroke="#1D51FD" stroke-width="2" stroke-miterlimit="10" stroke-linecap="round" stroke-linejoin="round"/>
<path d="M52.1475 57.6476C52.1475 61.8238 40.6511 65.2045 26.4683 65.2045C12.2855 65.2045 0.789062 61.8238 0.789062 57.6476" stroke="#1D51FD" stroke-width="2" stroke-miterlimit="10" stroke-linecap="round" stroke-linejoin="round"/>
<path d="M26.4683 15.9093C40.6506 15.9093 52.1475 12.5259 52.1475 8.35236C52.1475 4.17877 40.6506 0.79541 26.4683 0.79541C12.286 0.79541 0.789062 4.17877 0.789062 8.35236C0.789062 12.5259 12.286 15.9093 26.4683 15.9093Z" stroke="#1D51FD" stroke-width="2" stroke-miterlimit="10" stroke-linecap="round" stroke-linejoin="round"/>
<path d="M0.804688 7.73987V21.6606" stroke="#1D51FD" stroke-width="2" stroke-miterlimit="10" stroke-linecap="round" stroke-linejoin="round"/>
<path d="M52.1641 7.73987V21.6606" stroke="#1D51FD" stroke-width="2" stroke-miterlimit="10" stroke-linecap="round" stroke-linejoin="round"/>
<path d="M51.9816 43.4961C52.0922 43.7745 52.1475 44.0609 52.1475 44.3473C52.1475 48.5235 40.6511 51.9042 26.4683 51.9042C12.5778 51.9042 1.26314 48.6587 0.804865 44.6018C0.796964 44.5223 0.789062 44.4348 0.789062 44.3473C0.789062 44.2598 0.796964 44.1723 0.804865 44.0927C0.962891 42.6609 2.48784 41.3245 4.99256 40.2029" stroke="#1D51FD" stroke-width="2" stroke-miterlimit="10" stroke-linecap="round" stroke-linejoin="round"/>
<path d="M0.804688 43.7349V44.0928V44.6019V57.6556" stroke="#1D51FD" stroke-width="2" stroke-miterlimit="10" stroke-linecap="round" stroke-linejoin="round"/>
<path d="M52.1641 43.7349V57.6556" stroke="#1D51FD" stroke-width="2" stroke-miterlimit="10" stroke-linecap="round" stroke-linejoin="round"/>
<path d="M56.1944 39.3597C56.1944 40.887 54.6458 42.3109 51.983 43.4962C47.3924 45.5564 39.4911 46.9167 30.5152 46.9167C17.3121 46.9167 6.4241 43.9735 4.99396 40.2029C4.89125 39.9245 4.83594 39.6461 4.83594 39.3597" stroke="#B5D0FF" stroke-width="2" stroke-miterlimit="10" stroke-linecap="round" stroke-linejoin="round"/>
<path d="M52.1252 21.9708C54.7011 23.1481 56.1944 24.5481 56.1944 26.0516C56.1944 30.2278 44.698 33.6085 30.5152 33.6085C16.6326 33.6085 5.31002 30.363 4.85174 26.3061C4.84384 26.2266 4.83594 26.1391 4.83594 26.0516C4.83594 25.9641 4.84384 25.8766 4.85174 25.797C4.85174 25.7732 4.85174 25.7573 4.85964 25.7413" stroke="#B5D0FF" stroke-width="2" stroke-miterlimit="10" stroke-linecap="round" stroke-linejoin="round"/>
<path d="M4.85156 25.4391V25.7414V25.797V26.3061V39.3598" stroke="#B5D0FF" stroke-width="2" stroke-miterlimit="10" stroke-linecap="round" stroke-linejoin="round"/>
<path d="M56.207 25.4391V39.3598" stroke="#B5D0FF" stroke-width="2" stroke-miterlimit="10" stroke-linecap="round" stroke-linejoin="round"/>
<path d="M52.1475 21.6605C52.1475 21.7639 52.1396 21.8673 52.1238 21.9708C51.5707 25.9958 40.2956 29.2175 26.4683 29.2175C17.3976 29.2175 9.42519 27.8334 4.85823 25.7413H4.85033C2.28241 24.564 0.789062 23.164 0.789062 21.6605" stroke="#1D51FD" stroke-width="2" stroke-miterlimit="10" stroke-linecap="round" stroke-linejoin="round"/>
</g>
<defs>
<clipPath id="clip0">
<rect width="57" height="66" fill="white"/>
</clipPath>
</defs>
</svg>
