<svg width="198" height="197" viewBox="0 0 198 197" fill="none" xmlns="http://www.w3.org/2000/svg">
<mask id="mask0" mask-type="alpha" maskUnits="userSpaceOnUse" x="0" y="0" width="198" height="197">
<path d="M99.1791 196.78C153.518 196.78 197.569 152.729 197.569 98.39C197.569 44.0507 153.518 0 99.1791 0C44.8398 0 0.789062 44.0507 0.789062 98.39C0.789062 152.729 44.8398 196.78 99.1791 196.78Z" fill="#E7EBF2"/>
</mask>
<g mask="url(#mask0)">
<path d="M130.58 65.6801C130.42 64.6481 130.2 63.6263 129.92 62.6201C128.84 70.7401 126.86 74.1301 123.92 72.8901L124.17 70.4001C113.69 91.3501 102.6 97.8901 90.75 90.0001C91.25 90.7401 91.83 91.4101 92.41 92.1501L93.16 92.9001C97.16 97.2801 102.84 97.7001 110.38 94.1401C111.29 93.5601 112.12 92.9801 113.03 92.3201C112.12 101.18 113.94 108.88 118.66 115.25C118.865 115.407 119.035 115.604 119.16 115.83L119.24 115.92C124.46 122.92 119.07 126.76 103.18 127.51C106.277 128.175 109.461 128.341 112.61 128C125.86 128.58 130.83 125.93 127.61 120.06C127.333 119.625 127.029 119.207 126.7 118.81C126.62 118.73 126.62 118.57 126.54 118.48L121.98 113.48L119.58 111C117.1 105.62 116.1 98.3301 116.52 89.1401C118.824 86.7455 120.698 83.9715 122.06 80.9401C122.566 79.7013 122.984 78.4281 123.31 77.1301L123.55 75.5601C124.41 75.6345 125.277 75.5772 126.12 75.3901C128.94 74.4801 130.43 71.2501 130.59 65.6201L130.58 65.6801Z" fill="#F5F6FA"/>
<path d="M125.783 65.6802C126.943 63.1202 127.853 61.6302 128.603 61.3002L128.003 51.0002C126.593 41.1402 123.443 34.7702 118.562 31.7002C123.362 42.7002 120.632 44.5402 110.283 37.0002C98.0958 39.2069 88.6058 46.3935 81.8125 58.5602C82.2372 60.853 82.7915 63.12 83.4725 65.3502L84.1325 64.8602C84.0525 63.9219 84.0525 62.9785 84.1325 62.0402C88.6825 51.6902 96.7225 44.4002 108.393 40.3502C112.324 45.8587 116.975 50.816 122.223 55.0902C122.246 58.9101 123.494 62.6217 125.783 65.6802Z" fill="#A0A5B4"/>
<path d="M128.599 61.3002C127.849 61.6302 126.939 63.1202 125.779 65.6802C121.059 63.7802 118.659 60.6302 118.659 56.1602C114.519 54.6702 111.039 51.0302 108.229 45.1602C98.5152 49.355 90.1677 56.182 84.1289 64.8702C84.1289 65.7802 84.1289 66.6902 84.2089 67.5202C84.3132 73.4924 85.5519 79.3905 87.8589 84.9002C88.6719 86.6811 89.6389 88.3875 90.7489 90.0002C102.599 97.8602 113.689 91.3202 124.209 70.3702L123.999 72.8902C126.899 74.1302 128.879 70.7402 129.999 62.6202C129.589 61.5402 129.169 61.1302 128.679 61.3002H128.599ZM85.5989 65.3002C86.3489 64.2302 87.1689 63.2302 87.9189 62.2402C87.9189 73.9102 90.9789 83.6002 97.0289 91.2402C95.1875 90.7747 93.4321 90.0186 91.8289 89.0002C90.8874 87.5211 90.0584 85.9734 89.3489 84.3702C87.0406 79.0607 85.8004 73.3488 85.6989 67.5602C85.6323 66.8422 85.6056 66.1211 85.6189 65.4002L85.5989 65.3002Z" fill="white"/>
<path d="M87.9405 62.29C87.1905 63.29 86.3705 64.29 85.6205 65.35C85.6072 66.071 85.6339 66.7921 85.7005 67.51C85.802 73.2986 87.0422 79.0106 89.3505 84.32C90.0578 85.9404 90.8868 87.5049 91.8305 89C93.4348 90.0484 95.1973 90.8318 97.0505 91.32C91.0005 83.7 87.9405 74.01 87.9405 62.32V62.29Z" fill="#F5F6FA"/>
<path d="M125.78 65.6801C123.492 62.6216 122.244 58.91 122.22 55.0901C116.973 50.8159 112.322 45.8586 108.39 40.3501C96.7203 44.3501 88.6803 51.6901 84.1303 62.0401C84.0503 62.9784 84.0503 63.9218 84.1303 64.8601C90.1691 56.1719 98.5166 49.345 108.23 45.1501C111.04 51.0301 114.52 54.6701 118.66 56.1501C118.66 60.6201 121.06 63.7701 125.78 65.6701V65.6801Z" fill="#F5F6FA"/>
<path d="M110.302 37.0001C120.652 44.5401 123.382 42.7101 118.582 31.7001C116.018 30.2253 113.088 29.5076 110.132 29.6301C101.602 24.7501 92.8222 28.8001 83.9622 41.8001C81.4822 46.3601 80.7422 51.9101 81.8122 58.6101C88.6055 46.4101 98.1022 39.2067 110.302 37.0001ZM89.8422 41.1401L86.5322 49.1401C85.1659 50.6217 83.9469 52.2326 82.8922 53.9501C82.6262 50.0523 83.4283 46.1558 85.2122 42.6801C93.4922 30.5901 101.522 26.6801 109.392 31.0101C100.442 32.2501 93.9022 35.5601 89.8422 41.1101V41.1401Z" fill="#A0A5B4"/>
<path d="M86.5297 49.1198L89.8397 41.1198C93.8997 35.5698 100.44 32.2598 109.39 31.0198C101.52 26.7098 93.4897 30.5998 85.2097 42.6898C83.4258 46.1656 82.6237 50.0621 82.8897 53.9598C83.9412 52.2402 85.1604 50.629 86.5297 49.1498V49.1198Z" fill="#A0A5B4"/>
<path d="M126.111 75.4502C125.268 75.6372 124.401 75.6946 123.541 75.6202L123.301 77.1902C122.975 78.4882 122.557 79.7614 122.051 81.0002C120.689 84.0316 118.815 86.8056 116.511 89.2002C116.091 98.3902 117.091 105.68 119.571 111.06L121.971 113.54C124.58 114.133 127.151 114.881 129.671 115.78C125.299 102.81 124.079 88.9855 126.111 75.4502Z" fill="#A0A5B4"/>
<path d="M113.001 92.3502C112.091 93.0102 111.261 93.5902 110.351 94.1702C102.811 97.7302 97.1008 97.3102 93.1308 92.9302L92.3808 92.1802C91.4708 101.12 86.8308 107.58 78.3008 111.56C82.3608 112.88 86.0908 115.78 89.4808 120.17C93.3578 123.72 98.0547 126.252 103.151 127.54C119.041 126.79 124.431 122.9 119.211 115.95L119.131 115.86C119.006 115.634 118.836 115.437 118.631 115.28C113.911 108.91 112.091 101.21 113.001 92.3502Z" fill="white"/>
<path d="M126.689 118.84C127.018 119.237 127.322 119.655 127.599 120.09C138.279 124.89 144.079 131.84 144.989 141.04C148.219 156.68 146.989 170.68 141.259 183.18C124.946 192.867 105.652 198.553 83.3789 200.24C104.672 200.24 126.176 199.273 147.889 197.34C148.139 196.93 148.469 196.43 148.719 196.02C149.719 194.36 150.619 192.62 151.529 190.8C156.249 180.45 157.579 168.8 155.419 155.61C156.169 139.61 152.609 128.95 144.739 123.61C140.096 120.314 135.026 117.667 129.669 115.74C127.149 114.841 124.578 114.093 121.969 113.5L126.529 118.5C126.609 118.59 126.609 118.75 126.689 118.83V118.84Z" fill="#1D51FD"/>
<path d="M112.612 128C109.463 128.34 106.279 128.175 103.182 127.51C98.0861 126.221 93.3892 123.689 89.5122 120.14C86.1222 115.75 82.3922 112.85 78.3322 111.53C73.8622 110.04 68.9822 110.28 63.6822 112.35L39.0922 126.71L37.9322 129.77L42.9322 128.45C40.6817 131.211 38.1848 133.761 35.4722 136.07C30.952 140.044 26.0129 143.514 20.7422 146.42C21.4971 147.343 22.2981 148.227 23.1422 149.07C29.009 155.119 35.7508 160.253 43.1422 164.3C44.3822 165.05 45.7022 165.71 47.0322 166.46L48.1922 169.27L58.6322 172C73.2989 177.053 84.5855 184.26 92.4922 193.62C79.5855 184.18 69.0889 180.036 61.0022 181.19C63.234 187.921 66.3801 194.315 70.3522 200.19C74.7422 200.27 79.0522 200.27 83.3522 200.27H83.4322C105.712 198.61 125.006 192.923 141.312 183.21C147.032 170.71 148.312 156.71 145.042 141.07C144.132 131.87 138.332 124.92 127.652 120.12C130.882 125.99 125.912 128.64 112.652 128.06L112.612 128ZM90.1822 126.27C74.8488 120.216 60.0255 120.216 45.7122 126.27C64.2655 112.936 79.0888 112.936 90.1822 126.27Z" fill="#1D51FD"/>
<path d="M45.7109 126.3C60.0309 120.247 74.8543 120.247 90.1809 126.3C79.0809 112.967 64.2576 112.967 45.7109 126.3Z" fill="#B5D0FF"/>
<path d="M84.1287 64.8599L83.4688 65.3499C83.7188 66.0999 83.9587 66.7599 84.2087 67.5099C84.1287 66.6799 84.1287 65.7699 84.1287 64.8599Z" fill="#A0A5B4"/>
<path d="M37.9295 129.77L35.5195 136.07C38.2391 133.763 40.7428 131.212 42.9995 128.45L37.9995 129.77H37.9295Z" fill="#1D51FD"/>
<path d="M90.752 89.9999C89.64 88.3745 88.673 86.6545 87.862 84.8599C88.772 94.8599 85.622 103.74 78.332 111.53C86.862 107.53 91.502 101.09 92.412 92.1499C91.832 91.4099 91.252 90.7399 90.752 89.9999Z" fill="#A0A5B4"/>
<path d="M58.6289 172C59.2407 175.102 60.0151 178.169 60.9489 181.19C69.0622 180.03 79.5756 184.173 92.4889 193.62C84.5356 184.287 73.2489 177.08 58.6289 172Z" fill="#B5D0FF"/>
<path d="M23.1903 149.07L21.1903 151.14L30.7103 163.47L19.2103 178.54L15.5703 185.75C20.7903 198.25 33.3203 213.126 53.1603 230.38L62.4403 231.62C52.2503 225 42.4403 216.22 32.7103 205.29L19.3803 186L43.2303 164.3C35.8389 160.253 29.0971 155.119 23.2303 149.07H23.1903Z" fill="#F5F6FA"/>
<path d="M30.7207 163.47L21.2007 151.14L-2.56932 175.81C-6.78932 182.517 -7.45598 187.983 -4.56932 192.21L7.52068 205.21C7.60068 205.29 7.77068 205.37 7.85068 205.46C20.0704 219.233 33.9225 231.467 49.1007 241.89C56.4848 244.98 64.6424 245.717 72.4607 244C77.3269 244.368 82.0041 246.04 86.0007 248.84L94.0007 253.73C94.7798 253.472 95.5075 253.08 96.1507 252.57L84.6407 244.46L80.5807 242.88L78.1807 241.88H90.1107L104.261 249.66L103.771 248.42L103.271 247.26L91.2707 238.73L82.1707 237.33L84.4807 235.26L92.1807 236.5L107.341 247.43C107.542 247.194 107.678 246.909 107.736 246.604C107.794 246.299 107.771 245.984 107.671 245.69L94.0107 234.92L88.3807 234.01L84.9007 233.43L89.7807 230.62L96.4907 232.19L106.011 237.33C106.249 237.249 106.475 237.135 106.681 236.99L94.1707 228.05H76.8407C75.5207 228.22 74.2807 228.47 73.1207 228.71C69.4697 229.304 65.8904 230.276 62.4407 231.61L53.1607 230.37C33.294 213.15 20.764 198.273 15.5707 185.74L19.2107 178.53L30.7207 163.46V163.47ZM21.1207 153.37L23.6007 156.68L2.07068 178.21C-3.71932 184.51 0.910683 195.77 16.0707 211.91C13.6607 209.51 11.3507 207.03 9.07068 204.46C9.07068 204.38 9.07068 204.38 8.98068 204.38C8.84038 204.218 8.67493 204.08 8.49069 203.97L-3.30932 191.38C-5.70932 187.65 -5.12932 182.77 -1.40932 176.72L21.1207 153.37Z" fill="white"/>
<path d="M23.5994 156.68L21.1194 153.37L-1.41062 176.72C-5.13062 182.77 -5.71062 187.65 -3.31062 191.38L8.44938 204C8.63363 204.11 8.79908 204.248 8.93938 204.41C9.02938 204.41 9.02938 204.41 9.02938 204.49C11.3494 207.06 13.6594 209.49 16.0294 211.94C0.869383 195.8 -3.76062 184.54 2.02938 178.24L23.5994 156.68Z" fill="white"/>
<path d="M153.929 206.78L151.529 190.78C150.619 192.6 149.709 194.34 148.719 196L150.369 197.9L156.249 242.37C157.079 245.02 157.989 247.75 159.069 250.48C160.309 236.4 158.595 221.827 153.929 206.76V206.78Z" fill="#A56E44"/>
<path d="M148.721 196C148.471 196.41 148.141 196.91 147.891 197.32C148.698 212.621 151.509 227.75 156.251 242.32L150.371 197.85L148.721 195.95V196Z" fill="#DCA56D"/>
</g>
</svg>
