<svg width="64" height="71" viewBox="0 0 64 71" fill="none" xmlns="http://www.w3.org/2000/svg">
<g clip-path="url(#clip0)">
<path d="M49.8877 56.4673L49.7662 56.45C47.8234 56.1207 46.6525 55.8434 46.6525 54.8295C46.6525 53.1223 49.3673 53.0703 49.6795 53.0703C50.8504 53.0876 52.0386 53.2436 52.7585 54.3008C52.8452 54.4308 53.036 54.4742 53.1835 54.3962L53.8774 54.0235C53.9554 53.9802 54.0075 53.9195 54.0248 53.8415C54.0421 53.7636 54.0248 53.6856 53.9814 53.6162C52.8626 52.091 51.4575 51.7791 49.6882 51.7791C48.153 51.7791 46.7653 52.2123 45.9847 52.9403C45.4383 53.4516 45.1607 54.1015 45.1781 54.8641C45.1781 56.9613 47.4852 57.3772 49.5147 57.7412C51.5616 58.0965 52.8973 58.4172 52.8886 59.6217C52.8886 61.2856 50.6509 61.4676 49.6882 61.4676C48.4132 61.4676 46.8086 60.8956 46.2015 59.795C46.1235 59.6564 45.9413 59.5957 45.7852 59.6651L45.0306 60.0117C44.9526 60.0464 44.9005 60.107 44.8745 60.1763C44.8485 60.2457 44.8572 60.3237 44.8918 60.393C45.8459 62.1262 47.9969 62.7415 49.6968 62.7415C52.6111 62.7415 54.3631 61.5802 54.3804 59.6304C54.3544 57.2473 51.9779 56.8313 49.8877 56.4673Z" fill="#1D51FD"/>
<path d="M0.867188 69.8995V3.55314C0.867188 2.07993 2.08144 0.866699 3.5559 0.866699H33.0276" stroke="#1D51FD" stroke-width="2" stroke-miterlimit="10" stroke-linecap="round" stroke-linejoin="round"/>
<path d="M33.0273 0.866699C33.0273 0.866699 49.9315 15.6941 50.1744 15.9368L50.1484 35.2185" stroke="#1D51FD" stroke-width="2" stroke-miterlimit="10" stroke-linecap="round" stroke-linejoin="round"/>
<path d="M33.0273 0.866699V18.3199H50.1744" stroke="#1D51FD" stroke-width="2" stroke-miterlimit="10" stroke-linecap="round" stroke-linejoin="round"/>
<path d="M49.7392 70.1249C57.1351 70.1249 63.1307 64.1344 63.1307 56.7447C63.1307 49.355 57.1351 43.3645 49.7392 43.3645C42.3432 43.3645 36.3477 49.355 36.3477 56.7447C36.3477 64.1344 42.3432 70.1249 49.7392 70.1249Z" stroke="#B5D0FF" stroke-width="2" stroke-miterlimit="10" stroke-linecap="round" stroke-linejoin="round"/>
<path d="M10.1914 25.4954H25.9767" stroke="#B5D0FF" stroke-width="2" stroke-miterlimit="10" stroke-linecap="round" stroke-linejoin="round"/>
<path d="M10.1914 36.0071H34.3898" stroke="#B5D0FF" stroke-width="2" stroke-miterlimit="10" stroke-linecap="round" stroke-linejoin="round"/>
<path d="M10.1914 46.5188H28.0843" stroke="#B5D0FF" stroke-width="2" stroke-miterlimit="10" stroke-linecap="round" stroke-linejoin="round"/>
<path d="M49.8877 56.4673L49.7662 56.45C47.8234 56.1207 46.6525 55.8434 46.6525 54.8295C46.6525 53.1223 49.3673 53.0703 49.6795 53.0703C50.8504 53.0876 52.0386 53.2436 52.7585 54.3008C52.8452 54.4308 53.036 54.4742 53.1835 54.3962L53.8774 54.0235C53.9554 53.9802 54.0075 53.9195 54.0248 53.8415C54.0421 53.7636 54.0248 53.6856 53.9814 53.6162C52.8626 52.091 51.4575 51.7791 49.6882 51.7791C48.153 51.7791 46.7653 52.2123 45.9847 52.9403C45.4383 53.4516 45.1607 54.1015 45.1781 54.8641C45.1781 56.9613 47.4852 57.3772 49.5147 57.7412C51.5616 58.0965 52.8973 58.4172 52.8886 59.6217C52.8886 61.2856 50.6509 61.4676 49.6882 61.4676C48.4132 61.4676 46.8086 60.8956 46.2015 59.795C46.1235 59.6564 45.9413 59.5957 45.7852 59.665L45.0306 60.0117C44.9526 60.0464 44.9005 60.107 44.8745 60.1763C44.8485 60.2457 44.8572 60.3237 44.8918 60.393C45.8459 62.1262 47.9969 62.7415 49.6968 62.7415C52.6111 62.7415 54.3631 61.5802 54.3804 59.6304C54.3544 57.2473 51.9779 56.8313 49.8877 56.4673Z" stroke="#1D51FD" stroke-miterlimit="10" stroke-linecap="round" stroke-linejoin="round"/>
<path d="M50.0195 49.136V51.5191" stroke="#1D51FD" stroke-width="2" stroke-miterlimit="10" stroke-linecap="round" stroke-linejoin="round"/>
<path d="M50.0195 62.6289V64.8994" stroke="#1D51FD" stroke-width="2" stroke-miterlimit="10" stroke-linecap="round" stroke-linejoin="round"/>
<path d="M0.929688 69.8215L6.55863 65.6099L12.1876 69.8215L17.8165 65.6099L23.4455 69.8215L29.0831 65.6099L34.7207 69.8215" stroke="#1D51FD" stroke-width="2" stroke-miterlimit="10" stroke-linecap="round" stroke-linejoin="round"/>
</g>
<defs>
<clipPath id="clip0">
<rect width="64" height="71" fill="white"/>
</clipPath>
</defs>
</svg>
