<svg width="198" height="197" viewBox="0 0 198 197" fill="none" xmlns="http://www.w3.org/2000/svg">
<mask id="mask0" mask-type="alpha" maskUnits="userSpaceOnUse" x="0" y="0" width="198" height="197">
<path d="M99.0775 196.78C153.417 196.78 197.467 152.729 197.467 98.39C197.467 44.0507 153.417 0 99.0775 0C44.7382 0 0.6875 44.0507 0.6875 98.39C0.6875 152.729 44.7382 196.78 99.0775 196.78Z" fill="#E7EBF2"/>
</mask>
<g mask="url(#mask0)">
<path d="M93.3769 96.9397C89.3769 93.7897 86.8969 90.3797 85.7969 86.7197V99.7197L101.797 119.72L115.657 126.44L121.227 121.34L118.417 117.34V101.12L117.567 102.4C112.107 108.88 105.887 108.88 98.8169 102.4L93.3569 96.9397H93.3769Z" fill="white"/>
<path d="M117.838 24.3199C117.275 24.2448 116.707 24.2147 116.138 24.2299C127.818 34.8099 128.138 38.8999 117.078 36.5899C114.948 40.6899 111.028 43.9299 105.398 46.2299C110.168 46.3099 114.088 45.0299 117.158 42.2299C117.263 42.1655 117.386 42.1374 117.508 42.1499C122.618 41.7999 124.918 45.0399 124.318 51.8599L125.318 62.2599L128.318 66.0099V56.5399L129.998 45.6299C131.618 33.9499 127.528 26.8799 117.808 24.3199H117.838Z" fill="#A0A5B4"/>
<path d="M138.636 119.36L133.206 115.05L129.206 124.99L111.996 129.65L127.996 173.3L134.386 246.85L144.836 300.07L142.276 304.92L142.876 321.46L155.406 311.32L153.406 291.03L149.126 258L147.506 225.27L150.506 179.07L150.596 144.63L155.706 172.33L152.126 250.16L152.726 254.08L160.056 268.48V278.2L169.176 295.76L167.556 305.56L184.856 302.24L186.476 289.11L177.276 231.75L167.556 205.58L164.066 183.41L158.946 158.36C154.856 143.18 148.126 130.23 138.656 119.36H138.636ZM153.726 250L153.816 246.34L164.996 262.56V275.09L173.356 292.74V302.79L169.426 303.56L170.706 296.06C170.773 295.717 170.712 295.361 170.536 295.06L161.536 277.92V268.46C161.532 268.223 161.474 267.991 161.366 267.78L154.206 253.63L153.696 250.05L153.726 250Z" fill="#1D51FD"/>
<path d="M155.689 172.29L150.579 144.59L150.489 179L147.489 225.2L149.129 258L153.389 291L155.389 311.29L142.859 321.43L142.999 325C148.369 325.17 153.739 322 159.109 315.46C159.66 314.808 160.171 314.123 160.639 313.41L152.709 254L152.109 250.08L155.689 172.25V172.29Z" fill="#1D51FD"/>
<path d="M117.51 42.1399C117.387 42.1274 117.264 42.1555 117.16 42.2199C114.09 45.0299 110.16 46.3099 105.4 46.2199C102.15 46.0611 98.9366 45.4588 95.8497 44.4299C90.4797 44.9399 87.1597 47.9199 85.7097 53.4299V65.2398L84.4297 70.7698L89.8897 66.7698C88.0997 54.9198 91.5097 48.7699 100.12 48.5299C100.511 48.44 100.918 48.44 101.31 48.5299C110.09 52.1098 115.71 51.5299 118.02 46.7399L121.02 53.2999L123.02 62.5098L128.33 65.9999L125.33 62.2499L124.33 51.8498C124.93 45.0298 122.63 41.7899 117.52 42.1399H117.51Z" fill="#F5F6FA"/>
<path d="M120.998 53.2997L117.998 46.7397C115.688 51.5097 110.068 52.1097 101.288 48.5297C100.897 48.4399 100.49 48.4399 100.098 48.5297C91.4881 48.7797 88.0981 54.9197 89.8681 66.7697L84.4081 70.7697L84.1581 71.6297L84.0681 71.0297L81.9981 64.2097C79.6981 62.8497 78.4181 62.8497 78.0781 64.2097C77.7381 65.5697 78.1581 67.6197 79.0781 70.7697C79.0967 71.0075 79.1541 71.2406 79.2481 71.4597C79.6279 72.9838 80.3725 74.3927 81.4177 75.5651C82.4629 76.7375 83.7774 77.6382 85.2481 78.1897V83.0497C85.2233 84.2994 85.4267 85.5431 85.8481 86.7197C103.181 106.053 114.688 106.82 120.368 89.0197L127.368 71.1997C127.479 72.6169 127.506 74.0394 127.448 75.4597C130.608 73.7597 131.888 70.0097 131.448 64.2097C131.374 63.9912 131.343 63.7601 131.358 63.5297C130.358 60.2897 129.358 58.9297 128.358 59.3497V65.9997L122.998 62.5097L120.998 53.2997ZM90.8181 69.6697V80.0697C91.0781 84.9197 96.0181 90.8897 105.568 98.1397C98.6681 95.6697 92.5681 90.6397 87.2481 83.0497V72.5697L90.8181 69.6697Z" fill="white"/>
<path d="M90.8161 80.0699V69.6699L87.2461 72.5699V83.0499C92.6061 90.6399 98.6661 95.6699 105.566 98.1399C96.0161 90.8899 91.0761 84.9199 90.8161 80.0699Z" fill="#F5F6FA"/>
<path d="M105.397 46.2299C111.027 43.9299 114.947 40.6899 117.077 36.5899C128.157 38.8999 127.817 34.8099 116.137 24.2299C91.9305 22.8966 79.8839 28.4099 79.9972 40.7699C77.0972 41.0299 75.5672 43.4099 75.3072 47.9299C75.2272 50.2299 75.8939 54.6632 77.3072 61.2299L82.5872 59.2299V49.3799C85.3972 44.1799 89.7472 42.4799 95.7972 44.4399C98.8841 45.4689 102.097 46.0711 105.347 46.2299H105.397Z" fill="#A0A5B4"/>
<path d="M82.6394 49.3801V59.2701L77.3594 61.2701C77.5294 62.2101 77.7794 63.1401 78.0394 64.2701C78.3794 62.9101 79.6594 62.9101 81.9594 64.2701L84.0894 71.0001L84.4294 70.7401L85.7094 65.2101V53.3901C87.1594 47.9301 90.4794 44.9501 95.8494 44.3901C89.8494 42.3901 85.4494 44.1301 82.6394 49.3301V49.3801Z" fill="#BCC1CC"/>
<path d="M84.0859 71.0298L84.1759 71.6298L84.4259 70.7798L84.0859 71.0298Z" fill="#E6E8EF"/>
<path d="M85.7991 86.7199C86.8991 90.3799 89.3791 93.7899 93.3791 96.9399L98.8391 102.4C105.909 108.88 112.129 108.88 117.589 102.4L118.439 101.12V117.4L121.249 121.4L121.009 126.18L123.459 127.99L126.539 117.31L124.069 112.53L122.959 96.5299L122.699 93.1999L123.899 91.1999C126.085 86.2229 127.271 80.8646 127.389 75.4299C127.447 74.0096 127.42 72.5871 127.309 71.1699L120.309 88.9899C114.602 106.803 103.096 106.037 85.7891 86.6899L85.7991 86.7199Z" fill="#F5F6FA"/>
<path d="M96.2279 122.67L82.3478 101.86C69.3955 111.492 55.0327 119.064 39.7678 124.31C27.3239 148.765 18.6364 174.956 13.9978 202C12.1178 223.74 17.9978 239.567 31.6378 249.48L58.5779 277.48L61.9779 281.06L72.3778 278.06L75.7078 282.24L82.7078 290.85C83.6378 290.59 84.7078 290.25 85.5978 289.99C85.6444 289.996 85.6916 289.992 85.7365 289.978C85.7813 289.964 85.8227 289.941 85.8578 289.91C88.4388 288.983 90.8996 287.751 93.1879 286.24C93.7878 285.73 94.2979 285.24 94.8979 284.79C97.9017 282.167 100.236 278.866 101.708 275.16L67.5479 256.6L49.1378 231.88L39.7678 213.8L58.7678 178.69L70.6078 163.69L57.0678 196.76L61.9978 203.32V216.11L71.2078 227.7L63.7878 234.26L76.6678 252.59L103.428 268.44L113.148 272.71L125.338 286.09C125.418 289.16 124.478 290.52 122.338 290.09C122.848 301.52 125.068 309.95 128.988 315.32L140.668 297.6L129.778 194.12L117.118 137.81L100.708 125.58L96.2279 122.67ZM78.3778 106.58L80.3778 112.2L42.4978 132.91L20.8378 197.1C16.1578 213.72 21.7778 230.26 37.8378 246.88L64.0079 273.13H75.8178L88.6078 287.2C87.4978 287.62 86.4779 288.05 85.3679 288.48L85.2778 288.56H85.1078C84.4972 288.797 83.8727 288.998 83.2378 289.16L73.6879 277.22C73.4747 276.997 73.2153 276.822 72.9278 276.71C72.6197 276.629 72.296 276.629 71.9878 276.71L62.6078 279.44L32.8578 248.44C32.7778 248.36 32.6878 248.36 32.6078 248.27C19.3878 238.64 13.7678 223.27 15.6078 202.27V202.44C20.1524 175.687 28.7123 149.775 40.9978 125.58C54.3082 121.051 66.9075 114.654 78.4178 106.58H78.3778ZM68.8279 200.42V213.89L80.5978 229.49L69.9978 239L67.4379 235.68L74.7678 228.43L64.6579 215.51V202.38L60.8178 195.65L63.8178 190.02L68.8178 200.42H68.8279Z" fill="#1D51FD"/>
<path d="M80.3394 112.2L78.3394 106.58C66.8278 114.652 54.2288 121.049 40.9194 125.58C28.6361 149.756 20.0729 175.648 15.5194 202.38V202.21C13.7294 223.27 19.3494 238.61 32.5194 248.21C32.5994 248.3 32.6894 248.3 32.7694 248.38L62.5194 279.38L71.9994 276.71C72.3075 276.63 72.6312 276.63 72.9394 276.71C73.2268 276.823 73.4862 276.997 73.6994 277.22L83.2494 289.16C83.8842 288.998 84.5087 288.798 85.1194 288.56H85.2894L85.3794 288.48C86.4894 288.05 87.5094 287.62 88.6194 287.2L75.8194 273.13H64.0594L37.8894 246.88C21.7794 230.26 16.1594 213.72 20.8894 197.1L42.4994 132.91" fill="#B5D0FF"/>
<path d="M70.6173 163.69L58.7773 178.69L39.7773 213.8L49.1473 231.88L67.5473 256.6L101.727 275.26C102.498 273.042 103.07 270.759 103.437 268.44L76.6773 252.59L63.8073 234.26L49.3073 215.51L57.0673 196.76L70.6173 163.69Z" fill="#1D51FD"/>
<path d="M133.268 115.74L138.637 119.36C148.107 130.19 154.837 143.14 158.927 158.36L164.048 183.41L167.537 205.58L177.257 231.75L186.458 289.11L184.837 302.24L167.537 305.56L166.768 309.31L168.048 309.57C171.686 308.562 175.505 308.382 179.223 309.045C182.94 309.708 186.461 311.196 189.527 313.4H190.467V286.68C189.021 255.74 182.941 227.74 172.227 202.68C167.201 166.627 158.477 138.627 146.057 118.68L130.717 108.63L126.537 116.55L115.677 126.55L112.798 125.06L101.798 119.73C97.6175 121.43 97.4875 120.05 95.1875 124.32L81.9975 101.89C81.0575 102.65 80.1275 103.34 79.1875 104.1L100.368 145.69L109.537 133.69L104.667 157.59L114.757 224.72L129.467 243.9L140.727 297.64L128.997 315.32C130.329 317.182 131.973 318.8 133.857 320.1L142.208 304.92L144.768 300.07L133.897 242.58L128.137 174.15L114.068 129.86L124.518 138.13L133.268 115.74Z" fill="#1D51FD"/>
<path d="M81.0195 99.4997L81.9595 101.89L100.33 135.89L110.67 118.09L85.7995 99.7598V95.2397L81.0195 99.4997Z" fill="#F5F6FA"/>
<path d="M110.668 118.05L108.348 122.16L112.878 125.77L110.018 130.89L114.088 129.88L117.628 125.99L110.668 118.05Z" fill="#1D51FD"/>
<path d="M114.09 129.88L110.02 130.89L120.44 147.83L129.91 213.75L123.55 231.21L125.45 233.55L129.89 238.92L134.18 229.4L138.48 219.88L123.36 144.85L115.45 131.98L114.09 129.88Z" fill="#1D51FD"/>
<path d="M105.598 126.72L110.018 130.89L112.878 125.77L108.348 122.11L105.868 126.35L105.598 126.72Z" fill="#1D51FD"/>
<path d="M120.437 147.83L110.017 130.89L107.457 158.3L118.027 224.5L123.547 231.21L129.907 213.75L120.437 147.83Z" fill="#1D51FD"/>
<path d="M130.72 108.71L123.3 101.62L110.68 118.04L122.82 131.73L130.72 108.71Z" fill="#F5F6FA"/>
</g>
</svg>
