<svg width="72" height="71" viewBox="0 0 72 71" fill="none" xmlns="http://www.w3.org/2000/svg">
<path d="M32.6832 17.9264V58.7489" stroke="#1D51FD" stroke-width="2" stroke-miterlimit="10" stroke-linecap="round" stroke-linejoin="round"/>
<path d="M39.0198 18.1255V58.7489" stroke="#1D51FD" stroke-width="2" stroke-miterlimit="10" stroke-linecap="round" stroke-linejoin="round"/>
<path d="M33.7723 8.76623C33.0792 8.06926 32.5842 7.07359 32.5842 5.97835C32.5842 3.38961 35.8515 1 35.8515 1C35.8515 1 39.1188 3.48918 39.1188 5.97835C39.1188 7.07359 38.6238 8.06926 37.9307 8.76623" stroke="#1D51FD" stroke-width="2" stroke-miterlimit="10" stroke-linecap="round" stroke-linejoin="round"/>
<path d="M42.8812 65.0216H46.9406C48.5248 65.0216 49.8119 66.316 49.8119 67.9091V70L21.9901 69.9004V67.9091C21.9901 66.316 23.2772 65.0216 24.8614 65.0216H28.7228C28.7228 61.1385 31.8911 57.8528 35.7525 57.8528C39.6139 57.8528 42.8812 61.1385 42.8812 65.0216Z" stroke="#1D51FD" stroke-width="2" stroke-miterlimit="10" stroke-linecap="round" stroke-linejoin="round"/>
<path d="M20.7029 11.554C21.8911 11.0562 23.2772 10.6579 24.6633 10.4588C27.0396 10.0605 29.4158 10.1601 31.594 10.7575" stroke="#1D51FD" stroke-width="2" stroke-miterlimit="10" stroke-linecap="round" stroke-linejoin="round"/>
<path d="M11.396 19.7186L1.59406 49.3896" stroke="#1D51FD" stroke-width="2" stroke-miterlimit="10" stroke-linecap="round" stroke-linejoin="round"/>
<path d="M14.9604 19.8181L24.8614 49.5887" stroke="#1D51FD" stroke-width="2" stroke-miterlimit="10" stroke-linecap="round" stroke-linejoin="round"/>
<path d="M50.2079 6.97397C48.7228 6.8744 47.2376 6.8744 45.6535 7.07354C43.2772 7.47181 41.099 8.26834 39.1188 9.46315" stroke="#1D51FD" stroke-width="2" stroke-miterlimit="10" stroke-linecap="round" stroke-linejoin="round"/>
<path d="M25.4554 49.4891C23.8713 54.7662 19.0198 58.5497 13.1782 58.5497C7.53465 58.5497 2.68317 54.7662 1 49.4891H25.4554Z" stroke="#B5D0FF" stroke-width="2" stroke-miterlimit="10" stroke-linecap="round" stroke-linejoin="round"/>
<path d="M56.9406 14.9395L47.1386 44.6104" stroke="#1D51FD" stroke-width="2" stroke-miterlimit="10" stroke-linecap="round" stroke-linejoin="round"/>
<path d="M60.4059 15.0389L70.4059 44.8095" stroke="#1D51FD" stroke-width="2" stroke-miterlimit="10" stroke-linecap="round" stroke-linejoin="round"/>
<path d="M71 44.71C69.3168 49.987 64.4654 53.7706 58.7228 53.7706C52.9802 53.7706 48.1287 49.987 46.4456 44.71H71Z" stroke="#B5D0FF" stroke-width="2" stroke-miterlimit="10" stroke-linecap="round" stroke-linejoin="round"/>
<path d="M13.2772 20.3161C15.0817 20.3161 16.5445 18.845 16.5445 17.0303C16.5445 15.2157 15.0817 13.7446 13.2772 13.7446C11.4727 13.7446 10.0099 15.2157 10.0099 17.0303C10.0099 18.845 11.4727 20.3161 13.2772 20.3161Z" stroke="#1D51FD" stroke-width="2" stroke-miterlimit="10" stroke-linecap="round" stroke-linejoin="round"/>
<path d="M58.5248 14.1428C60.3293 14.1428 61.7921 12.6718 61.7921 10.8571C61.7921 9.04248 60.3293 7.57141 58.5248 7.57141C56.7203 7.57141 55.2574 9.04248 55.2574 10.8571C55.2574 12.6718 56.7203 14.1428 58.5248 14.1428Z" stroke="#1D51FD" stroke-width="2" stroke-miterlimit="10" stroke-linecap="round" stroke-linejoin="round"/>
<path d="M35.9505 19.0216C38.8487 19.0216 41.1981 16.659 41.1981 13.7446C41.1981 10.8301 38.8487 8.46753 35.9505 8.46753C33.0524 8.46753 30.703 10.8301 30.703 13.7446C30.703 16.659 33.0524 19.0216 35.9505 19.0216Z" stroke="#B5D0FF" stroke-width="2" stroke-miterlimit="10" stroke-linecap="round" stroke-linejoin="round"/>
</svg>
