<svg width="85" height="64" viewBox="0 0 85 64" fill="none" xmlns="http://www.w3.org/2000/svg">
<path d="M85 17.0312C85 7.71726 77.3089 0 68.0265 0C60.3354 0 53.8378 5.05613 51.7161 12.1081H6.23245C2.78471 12.1081 0 14.9023 0 18.3617V57.6133C0 61.0728 2.78471 63.8669 6.23245 63.8669H68.8222C72.2699 63.8669 75.0546 61.0728 75.0546 57.6133V32.5988C80.8892 29.8046 85 23.9501 85 17.0312ZM51.053 15.0353C50.9204 15.7006 50.9204 16.3659 50.9204 17.1642C50.9204 20.7568 52.1139 24.3493 54.2356 27.2765L39.649 38.8524C38.4555 39.7838 36.4665 39.7838 35.4056 38.8524L5.70203 15.0353C5.83463 15.0353 6.09984 15.0353 6.36505 15.0353H51.053ZM3.31513 16.8981L26.1232 34.9938L2.91732 49.8961V18.3617C2.91732 17.8295 3.04992 17.2973 3.31513 16.8981ZM68.8222 61.0728H6.23245C4.37597 61.0728 2.91732 59.6092 2.91732 57.7464V53.2225L28.5101 36.7235L33.6817 40.8482C34.7426 41.7796 36.2012 42.1788 37.6599 42.1788C39.1186 42.1788 40.4446 41.7796 41.6381 40.8482L46.6771 36.8566L72.2699 53.3555L72.4025 53.0894V57.6133C72.2699 59.4761 70.6786 61.0728 68.8222 61.0728ZM72.2699 50.0291L48.9314 34.9938L56.2247 29.2724C59.4072 32.3326 63.6505 34.0624 68.0265 34.0624C69.4852 34.0624 70.9438 33.7963 72.2699 33.5301V50.0291ZM68.0265 31.2682C63.9158 31.2682 59.9376 29.4054 57.2855 26.2121C55.1638 23.684 53.9704 20.3576 53.9704 17.0312C53.9704 9.18087 60.3354 2.79418 68.1591 2.79418C75.9828 2.79418 82.0827 9.31393 82.0827 17.0312C82.0827 24.8815 75.7176 31.2682 68.0265 31.2682Z" fill="#1D51FD"/>
<path d="M67.098 23.2848L61.396 19.5592C60.733 19.1601 60.6004 18.2287 60.9982 17.5634C61.396 16.8981 62.3242 16.7651 62.9873 17.1642L66.435 19.4262L73.1979 11.0437C73.7283 10.3784 74.6565 10.3784 75.187 10.7775C75.85 11.3098 75.85 12.2412 75.4522 12.7734L67.098 23.2848Z" fill="#B5D0FF"/>
</svg>
