<svg width="73" height="72" viewBox="0 0 73 72" fill="none" xmlns="http://www.w3.org/2000/svg">
<path d="M28.2222 59H1V63C1 65.2 2.75 67 4.88889 67H67.1111C69.25 67 71 65.2 71 63V59.1H44.0694C44.0694 59.1 43.9722 59.1 43.9722 59.2L41.3472 62L41.25 62.1H31.625C31.5278 62.1 31.4306 62.1 31.4306 62L28.6111 59.2C28.4167 59 28.3194 59 28.2222 59Z" stroke="#1D51FD" stroke-width="2" stroke-miterlimit="10" stroke-linecap="round" stroke-linejoin="round"/>
<path d="M66.9 42.7998V59.0998" stroke="#1D51FD" stroke-width="2" stroke-miterlimit="10" stroke-linecap="round" stroke-linejoin="round"/>
<path d="M4.5 58.5V17.5C4.5 16.1 5.6 15 7 15H32.6" stroke="#1D51FD" stroke-width="2" stroke-miterlimit="10" stroke-linecap="round" stroke-linejoin="round"/>
<path d="M38.5 22V24.4L41.8 25.7C42.1 26.8 42.6 27.8 43.1 28.7L41.9 32L45.4 35.5L48.7 34.1C49.6 34.6 50.7 35 51.7 35.3L53.1 38.5H58L59.4 35.2C60.5 34.9 61.5 34.4 62.4 33.9L65.6 35.3L69.1 31.8L67.7 28.5C68.2 27.5 68.7 26.4 68.9 25.3L72 24V19.1L68.6 17.7C68.3 16.7 67.9 15.7 67.4 14.9L68.7 11.6L65.2 8L64.3 8.4L61.8 9.4C60.9 8.9 59.9 8.5 58.9 8.3L57.5 5H52.6L51.3 8.3C50.2 8.6 49.1 9.1 48.1 9.7L45 8.3L41.5 11.8L42.9 15.1C42.4 16.1 42 17.1 41.7 18.2L38.5 19.5V22V22Z" stroke="#1D51FD" stroke-width="2" stroke-miterlimit="10" stroke-linecap="round" stroke-linejoin="round"/>
<path d="M56.8 28.3999C56.3 28.4999 55.8 28.5999 55.3 28.5999C54.8 28.5999 54.3 28.4999 53.8 28.3999C53 28.1999 52.2 27.8999 51.6 27.3999C49.8 26.1999 48.6 24.1999 48.6 21.8999C48.6 21.7999 48.6 21.6999 48.6 21.6999C48.6 17.8999 51.7 14.8999 55.4 14.8999C59.2 14.8999 62.2 17.8999 62.2 21.6999C62.1 24.9999 59.8 27.6999 56.8 28.3999Z" stroke="#B5D0FF" stroke-width="2" stroke-miterlimit="10" stroke-linecap="round" stroke-linejoin="round"/>
<path d="M32.5 26.7002H14.7V34.7002H35.7999" stroke="#B5D0FF" stroke-width="2" stroke-miterlimit="10" stroke-linecap="round" stroke-linejoin="round"/>
<path d="M14.7 44H49" stroke="#B5D0FF" stroke-width="2" stroke-miterlimit="10" stroke-linecap="round" stroke-linejoin="round"/>
<path d="M14.7 52.3999H56.9" stroke="#B5D0FF" stroke-width="2" stroke-miterlimit="10" stroke-linecap="round" stroke-linejoin="round"/>
</svg>
