<svg width="72" height="69" viewBox="0 0 72 69" fill="none" xmlns="http://www.w3.org/2000/svg">
<g clip-path="url(#clip0)">
<path d="M64.6976 7.81543H68.1567C69.566 7.81543 70.719 8.96846 70.719 10.3777V57.1393C70.719 58.5485 69.566 59.7015 68.1567 59.7015H3.84353C2.43427 59.7015 1.28125 58.5485 1.28125 57.1393V10.3777C1.28125 8.96846 2.43427 7.81543 3.84353 7.81543H7.43072" stroke="#1D51FD" stroke-width="2" stroke-miterlimit="10"/>
<path d="M12.9395 44.1994V1.28125H59.0604V44.1994" stroke="#1D51FD" stroke-width="2" stroke-miterlimit="10"/>
<path d="M34.207 55.0889H38.3067" stroke="#1D51FD" stroke-width="2" stroke-miterlimit="10"/>
<path d="M24.0859 67.2598H48.2995" stroke="#1D51FD" stroke-width="2" stroke-miterlimit="10"/>
<path d="M29.5938 59.7012V66.7474" stroke="#1D51FD" stroke-width="2" stroke-miterlimit="10"/>
<path d="M42.918 59.7012V66.7474" stroke="#1D51FD" stroke-width="2" stroke-miterlimit="10"/>
<path d="M18.832 6.14941H21.2662" stroke="#1D51FD" stroke-width="2" stroke-miterlimit="10"/>
<path d="M23.7012 6.14941H26.1353" stroke="#1D51FD" stroke-width="2" stroke-miterlimit="10"/>
<path d="M28.5703 6.14941H31.0045" stroke="#1D51FD" stroke-width="2" stroke-miterlimit="10"/>
<path d="M12.9395 11.2744H59.0604" stroke="#1D51FD" stroke-width="2" stroke-miterlimit="10"/>
<path d="M1.4082 50.0928H70.8459" stroke="#1D51FD" stroke-width="2" stroke-miterlimit="10"/>
<path d="M44.7109 21.7793H53.5508" stroke="#B5D0FF" stroke-width="2" stroke-miterlimit="10"/>
<path d="M18.832 21.7793H41.1238" stroke="#B5D0FF" stroke-width="2" stroke-miterlimit="10"/>
<path d="M39.7148 28.4414H53.5511" stroke="#B5D0FF" stroke-width="2" stroke-miterlimit="10"/>
<path d="M18.832 28.4414H36.1274" stroke="#B5D0FF" stroke-width="2" stroke-miterlimit="10"/>
<path d="M44.7109 35.2314H53.5508" stroke="#B5D0FF" stroke-width="2" stroke-miterlimit="10"/>
<path d="M18.832 35.2314H41.1238" stroke="#B5D0FF" stroke-width="2" stroke-miterlimit="10"/>
</g>
<defs>
<clipPath id="clip0">
<rect width="72" height="68.5409" fill="white"/>
</clipPath>
</defs>
</svg>
