<svg width="67" height="71" viewBox="0 0 67 71" fill="none" xmlns="http://www.w3.org/2000/svg">
<g clip-path="url(#clip0)">
<path d="M40.0806 8.15695C40.0806 12.1975 37.1315 15.4704 33.4954 15.4704C29.8593 15.4704 26.9102 12.1975 26.9102 8.15695C26.9102 4.11644 29.8593 0.843536 33.4954 0.843536C37.1399 0.843536 40.0806 4.11644 40.0806 8.15695Z" stroke="#1D51FD" stroke-width="2" stroke-miterlimit="10"/>
<path d="M41.3452 17.6045C41.3452 16.4236 40.7001 15.4704 39.9041 15.4704H27.0856C26.2896 15.4704 25.6445 16.4236 25.6445 17.6045V27.3388H41.3452V17.6045V17.6045Z" stroke="#1D51FD" stroke-width="2" stroke-miterlimit="10"/>
<path d="M22.3423 50.2154C22.3423 54.2559 19.3932 57.5288 15.7571 57.5288C12.121 57.5288 9.17188 54.2559 9.17188 50.2154C9.17188 46.1749 12.121 42.902 15.7571 42.902C19.3932 42.902 22.3423 46.1749 22.3423 50.2154Z" stroke="#1D51FD" stroke-width="2" stroke-miterlimit="10"/>
<path d="M23.6069 59.6629C23.6069 58.482 22.9618 57.5288 22.1658 57.5288H9.34729C8.55137 57.5288 7.90625 58.482 7.90625 59.6629V69.3973H23.6069V59.6629Z" stroke="#1D51FD" stroke-width="2" stroke-miterlimit="10"/>
<path d="M57.5298 50.983C57.5298 55.0235 54.5807 58.2964 50.9446 58.2964C47.3085 58.2964 44.3594 55.0235 44.3594 50.983C44.3594 46.9425 47.3085 43.6696 50.9446 43.6696C54.5807 43.6696 57.5298 46.9425 57.5298 50.983Z" stroke="#1D51FD" stroke-width="2" stroke-miterlimit="10"/>
<path d="M58.7944 60.4306C58.7944 59.2496 58.1493 58.2964 57.3534 58.2964H44.5348C43.7389 58.2964 43.0938 59.2496 43.0938 60.4306V70.1649H58.7944V60.4306Z" stroke="#1D51FD" stroke-width="2" stroke-miterlimit="10"/>
<path d="M33.4922 30.6708V44.4035" stroke="#B5D0FF" stroke-width="2" stroke-miterlimit="10"/>
<path d="M25.0391 44.4035H42.1472" stroke="#B5D0FF" stroke-width="2" stroke-miterlimit="10"/>
<path d="M43.6328 9.7681C56.7111 14.0617 66.1616 26.4363 66.1616 41.0378C66.1616 47.1365 64.5111 52.8472 61.6374 57.7397" stroke="#1D51FD" stroke-width="2" stroke-miterlimit="10"/>
<path d="M4.04477 55.2681C1.98374 50.9661 0.835938 46.1411 0.835938 41.0462C0.835938 26.7737 9.86757 14.6268 22.4851 10.0802" stroke="#1D51FD" stroke-width="2" stroke-miterlimit="10"/>
<path d="M5.88672 41.0462C5.88672 30.5274 11.6676 21.3751 20.205 16.6176" stroke="#B5D0FF" stroke-width="2" stroke-miterlimit="10"/>
<path d="M39.9699 68.0645C38.1686 68.5285 36.2919 68.8068 34.3566 68.8996C31.8264 69.0177 29.3548 68.7815 26.9922 68.2501" stroke="#1D51FD" stroke-width="2" stroke-miterlimit="10"/>
<path d="M46.1523 16.1705C55.1421 20.7846 61.3 30.19 61.3 41.0462" stroke="#B5D0FF" stroke-width="2" stroke-miterlimit="10"/>
</g>
<defs>
<clipPath id="clip0">
<rect width="67" height="71" fill="white"/>
</clipPath>
</defs>
</svg>
