<svg width="74" height="63" viewBox="0 0 74 63" fill="none" xmlns="http://www.w3.org/2000/svg">
<g clip-path="url(#clip0)">
<path fill-rule="evenodd" clip-rule="evenodd" d="M32.4 1C32.6 1 32.7 1 32.9 1C32.8 1.3 32.8 1.6 32.7 1.9C32.3 2.9 32.6 3.7 33.5 4.1C33.9 4.3 34.3 4.4 34.8 4.6C36 5 37.3 5.2 38.4 5.7C41.1 6.7 42.8 8.6 43.1 11.6C43.3 12.9 43.2 14.3 43.2 15.7C43.2 17.6 43.2 19.4 43.2 21.3C43.2 21.8 43.3 22.2 43.8 22.5C44.2 22.7 44.3 23.1 44.2 23.5C43.8 25.5 43.4 27.4 43 29.4C42.9 30 38 37.3 38 37.8C38.1 39 38.8 40 38.9 41.2C38.9 41.6 40.5 42 41 42.2C41.5 42.4 41.8 42.9 42 43.4C42.2 44.1 42.4 44.8 42.7 45.6C42.8 45.9 43 46.1 43.3 46.3C45.1 47.3 46.9 48.2 48.8 49.2C51.7 50.7 54.6 52.3 57.5 53.8C58.2 54.2 58.5 54.7 58.5 55.5C58.5 57.1 58.5 58.6 58.5 60.2C58.5 60.9 58.3 61.5 57.7 61.8C39.1 61.8 20.4 61.8 1.8 61.8C1.2 61.2 1 60.6 1 59.9C1 58.3 1 56.7 1 55.2C1 54.4 1.3 54 2 53.6C4.2 52.5 6.3 51.4 8.5 50.2C11.1 48.8 13.7 47.5 16.3 46.1C16.5 46 16.8 45.7 16.9 45.4C17.2 44.7 17.3 43.9 17.7 43.2C17.9 42.8 19.5 42.4 19.9 42.1C20.3 41.8 21.1 41.5 21.1 41C21.2 39.9 21.9 39.2 22 38.2C22.1 37.4 17.2 31.4 17 30.4C16.7 29.3 16.3 28.1 16.1 27C15.8 25.9 15.7 24.7 15.5 23.5C15.4 23.1 15.5 22.7 15.9 22.5C16.5 22.2 16.6 21.7 16.6 21.1C16.6 18.1 16.6 15.2 16.6 12.2C16.6 11.4 16.7 10.6 17 9.9C17.7 8 19.1 6.6 20.9 5.8C23.4 4.6 26 3.6 28.6 2.5C29.7 2 31.1 1.5 32.4 1Z" stroke="#1D51FD" stroke-width="2" stroke-miterlimit="10"/>
<path d="M48.1 16.3002C48.4 16.2002 48.7 16.1002 49 15.9002C50 15.5002 51.1 15.1002 52.1 14.7002C52.2 14.7002 52.4 14.7002 52.5 14.7002C52.5 14.9002 52.4 15.2002 52.4 15.4002C52.1 16.2002 52.3 16.8002 53.1 17.1002C53.4 17.2002 53.7 17.4002 54.1 17.5002C55 17.8002 56 18.0002 56.9 18.3002C59 19.1002 60.3 20.6002 60.6 22.8002C60.7 23.8002 60.6 24.9002 60.6 25.9002C60.6 27.4002 60.6 28.8002 60.6 30.2002C60.6 30.6002 60.7 30.9002 61.1 31.1002C61.4 31.2002 61.5 31.5002 61.4 31.8002C61.1 33.3002 60.8 34.9002 60.5 36.4002C60.4 36.9002 56.6 42.5002 56.6 42.9002C56.7 43.8002 57.2 44.6002 57.3 45.5002C57.3 45.8002 58.6 46.1002 58.9 46.3002C59.3 46.5002 59.5 46.8002 59.7 47.2002C59.9 47.8002 60 48.3002 60.3 48.9002C60.4 49.1002 60.6 49.3002 60.7 49.4002C62.1 50.2002 63.5 50.9002 64.9 51.6002C67.1 52.8002 69.4 54.0002 71.6 55.2002C72.2 55.5002 72.4 55.9002 72.4 56.5002C72.4 57.7002 72.4 58.9002 72.4 60.1002C72.4 60.7002 72.3 61.1002 71.7 61.4002C69.6 61.4002 67.6 61.4002 65.5 61.4002" stroke="#B5D0FF" stroke-width="2" stroke-miterlimit="10"/>
<path d="M21 41.2998L30 49.0998L24.5 52.8998L16.8 45.6998" stroke="#1D51FD" stroke-width="2" stroke-miterlimit="10"/>
<path d="M38.9 41.2998L30 49.0998L35.4 52.8998L43.1 45.6998" stroke="#1D51FD" stroke-width="2" stroke-miterlimit="10"/>
</g>
<defs>
<clipPath id="clip0">
<rect width="73.4" height="62.6" fill="white"/>
</clipPath>
</defs>
</svg>
