<svg width="67" height="76" viewBox="0 0 67 76" fill="none" xmlns="http://www.w3.org/2000/svg">
<g clip-path="url(#clip0)">
<path d="M33.1 75C49.1715 75 62.2 61.9715 62.2 45.9001C62.2 29.8286 49.1715 16.8 33.1 16.8C17.0285 16.8 4 29.8286 4 45.9001C4 61.9715 17.0285 75 33.1 75Z" stroke="#1D51FD" stroke-width="2" stroke-miterlimit="10"/>
<path d="M52.7 45.8999C52.7 56.6999 43.9 65.4999 33.1 65.4999C22.3 65.4999 13.5 56.6999 13.5 45.8999C13.5 39.9999 16.1 34.6999 20.3 31.0999C21.3 30.1999 22.5 29.3999 23.7 28.7999C26.5 27.2999 29.7 26.3999 33.1 26.3999" stroke="#B5D0FF" stroke-width="2" stroke-miterlimit="10"/>
<path d="M40.2999 7.7C40.2999 8.7 39.5 9.5 38.5 9.5H27.5C26.5 9.5 25.7 8.7 25.7 7.7V2.8C25.7 1.8 26.5 1 27.5 1H38.4C39.4 1 40.2 1.8 40.2 2.8V7.7H40.2999Z" stroke="#1D51FD" stroke-width="2" stroke-miterlimit="10"/>
<path d="M55.3 17.1L58 14.4C58.7 13.7 59.9 13.7 60.6 14.4L65.3001 19.1C66.0001 19.8 66.0001 21 65.3001 21.7L62.6 24.4" stroke="#1D51FD" stroke-width="2" stroke-miterlimit="10"/>
<path d="M4.19998 24.2999L1.49998 21.5999C0.799976 20.8999 0.799976 19.6999 1.49998 18.9999L6.19998 14.2999C6.89998 13.5999 8.09998 13.5999 8.79998 14.2999L11.5 16.9999" stroke="#1D51FD" stroke-width="2" stroke-miterlimit="10"/>
<path d="M48.6 30.8C48.6 30.8 30.6 41.9001 30.1 42.4001C28.3 44.2001 28.3 47.2 30.1 49C31.9 50.8 34.9 50.8 36.7 49C37.1 48.5 48.6 30.8 48.6 30.8Z" stroke="#B5D0FF" stroke-width="2" stroke-miterlimit="10"/>
</g>
<defs>
<clipPath id="clip0">
<rect width="66.8" height="76" fill="white"/>
</clipPath>
</defs>
</svg>
