<svg width="72" height="72" viewBox="0 0 72 72" fill="none" xmlns="http://www.w3.org/2000/svg">
<path d="M67.0833 48H27.9167C25.7625 48 24 46.2375 24 44.0833V4.91667C24 2.7625 25.7625 1 27.9167 1H67.0833C69.2375 1 71 2.7625 71 4.91667V44.0833C71 46.2375 69.2375 48 67.0833 48Z" stroke="#B5D0FF" stroke-width="2" stroke-miterlimit="10" stroke-linecap="round" stroke-linejoin="round"/>
<path d="M48 53.375V67.0833C48 69.2375 46.2375 71 44.0833 71H4.91667C2.7625 71 1 69.2375 1 67.0833V27.9167C1 25.7625 2.7625 24 4.91667 24H18.625" stroke="#1D51FD" stroke-width="2" stroke-miterlimit="10" stroke-linecap="round" stroke-linejoin="round"/>
<path d="M31.4 24H44C46.2 24 48 25.8 48 28V40.7" stroke="#B5D0FF" stroke-width="2" stroke-miterlimit="10" stroke-linecap="round" stroke-linejoin="round"/>
<path d="M31.4 32.3H41.9" stroke="#1D51FD" stroke-width="2" stroke-miterlimit="10" stroke-linecap="round" stroke-linejoin="round"/>
<path d="M31.4 40.7H41.9" stroke="#1D51FD" stroke-width="2" stroke-miterlimit="10" stroke-linecap="round" stroke-linejoin="round"/>
</svg>
