<svg width="74" height="73" viewBox="0 0 74 73" fill="none" xmlns="http://www.w3.org/2000/svg">
<path d="M38.1375 65.9761H4.35275C2.44811 65.9761 0.90625 64.5986 0.90625 62.9854V14.935C0.90625 13.3219 2.44811 11.9443 4.35275 11.9443H8.16204" stroke="#1D51FD" stroke-width="2" stroke-miterlimit="10"/>
<path d="M44.207 11.9443H47.5356C49.4403 11.9443 50.9821 13.3219 50.9821 14.935V38.9602" stroke="#1D51FD" stroke-width="2" stroke-miterlimit="10"/>
<path d="M38.1372 8.37402H43.4883V15.8507H8.99609V8.37402H13.8756" stroke="#1D51FD" stroke-width="2" stroke-miterlimit="10"/>
<path d="M13.9922 8.14734C13.9922 4.12351 17.3208 0.90625 21.4838 0.90625H30.6442C34.8072 0.90625 38.1358 4.12351 38.1358 8.14734" stroke="#1D51FD" stroke-width="2" stroke-miterlimit="10"/>
<path d="M22.0859 8.14746H29.8134" stroke="#1D51FD" stroke-width="2" stroke-miterlimit="10"/>
<path d="M37.7463 59.8769H6.97266V21.7139" stroke="#1D51FD" stroke-width="2" stroke-miterlimit="10"/>
<path d="M44.8047 21.7139V38.9602" stroke="#1D51FD" stroke-width="2" stroke-miterlimit="10"/>
<path d="M14.0938 38.9609H30.51" stroke="#B5D0FF" stroke-width="2" stroke-miterlimit="10"/>
<path d="M14.0938 47.5518H37.7476" stroke="#B5D0FF" stroke-width="2" stroke-miterlimit="10"/>
<path d="M14.0938 30.3691H37.7476" stroke="#B5D0FF" stroke-width="2" stroke-miterlimit="10"/>
<path d="M73.0909 58.9712V54.5124L70.0344 53.2255C69.7533 52.3192 69.3814 51.4583 68.9188 50.6426L70.0979 47.661L66.9416 44.5072L63.8217 45.7306C62.9872 45.2956 62.1075 44.9422 61.1733 44.6975L59.967 41.7793H55.5047L54.3438 44.7972C53.328 45.0962 52.3666 45.5222 51.4687 46.0478L48.648 44.779L45.4917 47.9329L46.7978 50.8964C46.3171 51.7754 45.9452 52.718 45.6822 53.7149L42.7617 54.9021V59.3609L45.791 60.5481C46.0812 61.5178 46.4803 62.4422 46.9882 63.3032L45.7638 66.2123L48.9201 69.3661L51.9222 68.0792C52.7838 68.5414 53.6998 68.913 54.6703 69.1668L55.8947 72.094H60.357L61.5724 69.058C62.5338 68.768 63.4498 68.3692 64.3024 67.8708L67.2137 69.0943L70.37 65.9404L69.0912 62.9226C69.5719 62.0254 69.9528 61.0647 70.2068 60.0497L73.0909 58.9712ZM57.9263 63.1219C54.507 63.1219 51.7408 60.3488 51.7408 56.9412C51.7408 53.5246 54.5161 50.7604 57.9263 50.7604C61.3456 50.7604 64.1119 53.5336 64.1119 56.9412C64.1119 60.3488 61.3456 63.1219 57.9263 63.1219Z" stroke="#B5D0FF" stroke-width="2" stroke-miterlimit="10"/>
</svg>
