<svg width="289" height="310" viewBox="0 0 289 310" fill="none" xmlns="http://www.w3.org/2000/svg">
<g opacity="0.5" clip-path="url(#clip0)">
<path opacity="0.15" d="M192.978 133.547H279.114C284.373 133.547 288.685 129.245 288.685 124C288.685 118.755 284.373 114.454 279.114 114.454H192.978C187.719 114.454 183.407 118.755 183.407 124C183.407 129.245 187.719 133.547 192.978 133.547Z" fill="#649DFF"/>
<path opacity="0.35" d="M192.978 104.907H250.402C255.661 104.907 259.973 100.606 259.973 95.3605C259.973 90.1151 255.661 85.814 250.402 85.814H193.083C187.825 85.814 183.513 90.1151 183.513 95.3605C183.407 100.606 187.719 104.907 192.978 104.907Z" fill="#9FDFFF"/>
<path opacity="0.15" d="M135.659 104.907H164.371C169.629 104.907 173.941 100.606 173.941 95.3605C173.941 90.1151 169.629 85.814 164.371 85.814H135.659C130.4 85.814 126.088 90.1151 126.088 95.3605C126.088 100.606 130.4 104.907 135.659 104.907Z" fill="#649DFF"/>
<path opacity="0.35" d="M53.941 76.2671H82.653C87.9116 76.2671 92.2236 71.966 92.2236 66.7206C92.2236 61.4753 87.9116 57.1741 82.653 57.1741H53.941C48.6824 57.1741 44.3704 61.4753 44.3704 66.7206C44.3704 72.0709 48.5773 76.2671 53.941 76.2671Z" fill="#9FDFFF"/>
<path opacity="0.25" d="M-116.333 105.012H25.2282C30.4868 105.012 34.7988 100.711 34.7988 95.4652C34.7988 90.2199 30.4868 85.9187 25.2282 85.9187H-116.333C-121.592 85.9187 -125.904 90.2199 -125.904 95.4652C-125.904 100.711 -121.592 105.012 -116.333 105.012Z" fill="#9FDFFF"/>
<path opacity="0.1" d="M115.782 223.242H250.402C255.661 223.242 259.973 218.941 259.973 213.695C259.973 208.45 255.661 204.149 250.402 204.149H115.782C110.523 204.149 106.211 208.45 106.211 213.695C106.211 219.046 110.523 223.242 115.782 223.242Z" fill="#649DFF"/>
<path opacity="0.35" d="M52.7838 251.986H187.404C192.663 251.986 196.975 247.685 196.975 242.44C196.975 237.194 192.663 232.893 187.404 232.893H52.7838C47.5252 232.893 43.2132 237.194 43.2132 242.44C43.2132 247.685 47.5252 251.986 52.7838 251.986Z" fill="#9FDFFF"/>
<path opacity="0.25" d="M52.5733 194.917H135.449C140.707 194.917 145.02 190.616 145.02 185.371C145.02 180.125 140.707 175.824 135.449 175.824H52.5733C47.3148 175.824 43.0027 180.125 43.0027 185.371C43.0027 190.721 47.3148 194.917 52.5733 194.917Z" fill="#9FDFFF"/>
<path opacity="0.15" d="M-43.0274 194.917H23.862C29.1206 194.917 33.4326 190.616 33.4326 185.371C33.4326 180.125 29.1206 175.824 23.862 175.824H-43.0274C-48.286 175.824 -52.598 180.125 -52.598 185.371C-52.598 190.721 -48.286 194.917 -43.0274 194.917Z" fill="#649DFF"/>
<path opacity="0.1" d="M250.402 166.382C255.661 166.382 259.973 162.081 259.973 156.836C259.973 151.59 255.661 147.289 250.402 147.289C245.143 147.289 240.831 151.59 240.831 156.836C240.831 162.081 245.038 166.382 250.402 166.382Z" fill="#649DFF"/>
<path opacity="0.35" d="M-7.68982 223.452C-2.43121 223.452 1.88086 219.151 1.88086 213.905C1.88086 208.66 -2.43121 204.359 -7.68982 204.359C-12.9484 204.359 -17.2605 208.66 -17.2605 213.905C-17.2605 219.151 -12.9484 223.452 -7.68982 223.452Z" fill="#9FDFFF"/>
<path opacity="0.35" d="M-7.68982 48.3621C-2.43121 48.3621 1.88086 44.0609 1.88086 38.8156C1.88086 33.5702 -2.43121 29.269 -7.68982 29.269C-12.9484 29.269 -17.2605 33.5702 -17.2605 38.8156C-17.2605 44.0609 -12.9484 48.3621 -7.68982 48.3621Z" fill="#9FDFFF"/>
<path opacity="0.15" d="M116.518 166.382H173.837C179.095 166.382 183.407 162.081 183.407 156.836C183.407 151.59 179.095 147.289 173.837 147.289H116.518C111.259 147.289 106.947 151.59 106.947 156.836C106.947 162.081 111.259 166.382 116.518 166.382Z" fill="#649DFF"/>
<path opacity="0.35" d="M54.0454 133.547H106.947C112.206 133.547 116.518 129.245 116.518 124C116.518 118.755 112.206 114.454 106.947 114.454H54.0454C48.7868 114.454 44.4748 118.755 44.4748 124C44.4748 129.245 48.7868 133.547 54.0454 133.547Z" fill="#9FDFFF"/>
<path opacity="0.35" d="M-65.0086 166.382H-7.6898C-2.4312 166.382 1.88086 162.081 1.88086 156.836C1.88086 151.59 -2.4312 147.289 -7.6898 147.289H-65.0086C-70.2672 147.289 -74.5792 151.59 -74.5792 156.836C-74.5792 162.081 -70.2672 166.382 -65.0086 166.382Z" fill="#9FDFFF"/>
<path opacity="0.15" d="M279.429 281.046C284.688 281.046 289 276.744 289 271.499C289 266.254 284.688 261.953 279.429 261.953C274.171 261.953 269.859 266.254 269.859 271.499C269.859 276.744 274.171 281.046 279.429 281.046Z" fill="#649DFF"/>
</g>
<defs>
<clipPath id="clip0">
<rect width="425" height="310" fill="white" transform="matrix(-1 0 0 1 289 0)"/>
</clipPath>
</defs>
</svg>
