<svg width="589" height="431" viewBox="0 0 589 431" fill="none" xmlns="http://www.w3.org/2000/svg">
<g opacity="0.5" clip-path="url(#clip0)">
<path opacity="0.15" d="M455.925 185.642H575.299C582.587 185.642 588.562 179.676 588.562 172.4C588.562 165.124 582.587 159.158 575.299 159.158H455.925C448.637 159.158 442.661 165.124 442.661 172.4C442.661 179.676 448.637 185.642 455.925 185.642Z" fill="#649DFF"/>
<path opacity="0.35" d="M455.925 145.916H535.508C542.795 145.916 548.771 139.95 548.771 132.674C548.771 125.398 542.795 119.432 535.508 119.432H456.071C448.783 119.432 442.807 125.398 442.807 132.674C442.661 139.95 448.637 145.916 455.925 145.916Z" fill="#9FDFFF"/>
<path opacity="0.15" d="M376.488 145.916H416.279C423.567 145.916 429.543 139.95 429.543 132.674C429.543 125.398 423.567 119.432 416.279 119.432H376.488C369.2 119.432 363.224 125.398 363.224 132.674C363.224 139.95 369.2 145.916 376.488 145.916Z" fill="#649DFF"/>
<path opacity="0.35" d="M263.236 106.19H303.027C310.315 106.19 316.291 100.224 316.291 92.948C316.291 85.6722 310.315 79.7061 303.027 79.7061H263.236C255.948 79.7061 249.972 85.6722 249.972 92.948C249.972 100.369 255.802 106.19 263.236 106.19Z" fill="#9FDFFF"/>
<path opacity="0.25" d="M27.2566 146.062H223.444C230.732 146.062 236.708 140.095 236.708 132.82C236.708 125.544 230.732 119.578 223.444 119.578H27.2566C19.9688 119.578 13.9928 125.544 13.9928 132.82C13.9928 140.095 19.9688 146.062 27.2566 146.062Z" fill="#9FDFFF"/>
<path opacity="0.1" d="M348.94 310.058H535.508C542.795 310.058 548.771 304.092 548.771 296.816C548.771 289.54 542.795 283.574 535.508 283.574H348.94C341.652 283.574 335.676 289.54 335.676 296.816C335.676 304.237 341.652 310.058 348.94 310.058Z" fill="#649DFF"/>
<path opacity="0.35" d="M261.632 349.929H448.2C455.488 349.929 461.464 343.963 461.464 336.687C461.464 329.412 455.488 323.446 448.2 323.446H261.632C254.345 323.446 248.369 329.412 248.369 336.687C248.369 343.963 254.345 349.929 261.632 349.929Z" fill="#9FDFFF"/>
<path opacity="0.25" d="M261.34 270.769H376.196C383.484 270.769 389.46 264.803 389.46 257.527C389.46 250.251 383.484 244.285 376.196 244.285H261.34C254.053 244.285 248.077 250.251 248.077 257.527C248.077 264.948 254.053 270.769 261.34 270.769Z" fill="#9FDFFF"/>
<path opacity="0.15" d="M128.848 270.769H221.549C228.836 270.769 234.812 264.803 234.812 257.527C234.812 250.251 228.836 244.285 221.549 244.285H128.848C121.56 244.285 115.584 250.251 115.584 257.527C115.584 264.948 121.56 270.769 128.848 270.769Z" fill="#649DFF"/>
<path opacity="0.1" d="M535.508 231.188C542.795 231.188 548.771 225.222 548.771 217.946C548.771 210.671 542.795 204.704 535.508 204.704C528.22 204.704 522.244 210.671 522.244 217.946C522.244 225.222 528.074 231.188 535.508 231.188Z" fill="#649DFF"/>
<path opacity="0.35" d="M177.822 310.349C185.11 310.349 191.086 304.383 191.086 297.107C191.086 289.831 185.11 283.865 177.822 283.865C170.534 283.865 164.558 289.831 164.558 297.107C164.558 304.383 170.534 310.349 177.822 310.349Z" fill="#9FDFFF"/>
<path opacity="0.35" d="M177.822 67.4827C185.11 67.4827 191.086 61.5166 191.086 54.2407C191.086 46.9649 185.11 40.9988 177.822 40.9988C170.534 40.9988 164.558 46.9649 164.558 54.2407C164.558 61.5166 170.534 67.4827 177.822 67.4827Z" fill="#9FDFFF"/>
<path opacity="0.15" d="M349.96 231.188H429.397C436.685 231.188 442.661 225.222 442.661 217.946C442.661 210.671 436.685 204.704 429.397 204.704H349.96C342.673 204.704 336.697 210.671 336.697 217.946C336.697 225.222 342.673 231.188 349.96 231.188Z" fill="#649DFF"/>
<path opacity="0.35" d="M263.381 185.642H336.696C343.984 185.642 349.96 179.676 349.96 172.4C349.96 165.124 343.984 159.158 336.696 159.158H263.381C256.093 159.158 250.117 165.124 250.117 172.4C250.117 179.676 256.093 185.642 263.381 185.642Z" fill="#9FDFFF"/>
<path opacity="0.35" d="M98.3851 231.188H177.822C185.11 231.188 191.086 225.222 191.086 217.946C191.086 210.671 185.11 204.704 177.822 204.704H98.3851C91.0973 204.704 85.1212 210.671 85.1212 217.946C85.1212 225.222 91.0973 231.188 98.3851 231.188Z" fill="#9FDFFF"/>
<path opacity="0.15" d="M575.736 390.238C583.024 390.238 589 384.271 589 376.996C589 369.72 583.024 363.754 575.736 363.754C568.448 363.754 562.472 369.72 562.472 376.996C562.472 384.271 568.448 390.238 575.736 390.238Z" fill="#649DFF"/>
<path opacity="0.15" d="M13.2636 270.914C20.5514 270.914 26.5273 264.948 26.5273 257.672C26.5273 250.397 20.5514 244.43 13.2636 244.43C5.97585 244.43 -0.00012207 250.397 -0.00012207 257.672C-0.00012207 264.948 5.97585 270.914 13.2636 270.914Z" fill="#649DFF"/>
<path opacity="0.35" d="M106.402 390.674C113.69 390.674 119.666 384.708 119.666 377.432C119.666 370.156 113.69 364.19 106.402 364.19C99.1144 364.19 93.1384 370.156 93.1384 377.432C93.1384 384.708 99.1144 390.674 106.402 390.674Z" fill="#9FDFFF"/>
</g>
<defs>
<clipPath id="clip0">
<rect width="589" height="430" fill="white" transform="matrix(-1 0 0 1 589 0.399902)"/>
</clipPath>
</defs>
</svg>
