<svg width="320" height="310" viewBox="0 0 320 310" fill="none" xmlns="http://www.w3.org/2000/svg">
<g opacity="0.5" clip-path="url(#clip0)">
<path opacity="0.15" d="M278.978 133.547H365.114C370.373 133.547 374.685 129.245 374.685 124C374.685 118.755 370.373 114.454 365.114 114.454H278.978C273.719 114.454 269.407 118.755 269.407 124C269.407 129.245 273.719 133.547 278.978 133.547Z" fill="#649DFF"/>
<path opacity="0.35" d="M278.978 104.907H336.402C341.661 104.907 345.973 100.606 345.973 95.3605C345.973 90.1151 341.661 85.814 336.402 85.814H279.083C273.825 85.814 269.513 90.1151 269.513 95.3605C269.407 100.606 273.719 104.907 278.978 104.907Z" fill="#9FDFFF"/>
<path opacity="0.15" d="M221.659 104.907H250.371C255.629 104.907 259.941 100.606 259.941 95.3605C259.941 90.1151 255.629 85.814 250.371 85.814H221.659C216.4 85.814 212.088 90.1151 212.088 95.3605C212.088 100.606 216.4 104.907 221.659 104.907Z" fill="#649DFF"/>
<path opacity="0.35" d="M139.941 76.2671H168.653C173.912 76.2671 178.224 71.966 178.224 66.7206C178.224 61.4753 173.912 57.1741 168.653 57.1741H139.941C134.682 57.1741 130.37 61.4753 130.37 66.7206C130.37 72.0709 134.577 76.2671 139.941 76.2671Z" fill="#9FDFFF"/>
<path opacity="0.25" d="M-30.3333 105.012H111.228C116.487 105.012 120.799 100.711 120.799 95.4652C120.799 90.2199 116.487 85.9187 111.228 85.9187H-30.3333C-35.5919 85.9187 -39.904 90.2199 -39.904 95.4652C-39.904 100.711 -35.5919 105.012 -30.3333 105.012Z" fill="#9FDFFF"/>
<path opacity="0.1" d="M201.782 223.242H336.402C341.661 223.242 345.973 218.941 345.973 213.695C345.973 208.45 341.661 204.149 336.402 204.149H201.782C196.523 204.149 192.211 208.45 192.211 213.695C192.211 219.046 196.523 223.242 201.782 223.242Z" fill="#649DFF"/>
<path opacity="0.35" d="M138.784 251.986H273.404C278.663 251.986 282.975 247.685 282.975 242.44C282.975 237.194 278.663 232.893 273.404 232.893H138.784C133.525 232.893 129.213 237.194 129.213 242.44C129.213 247.685 133.525 251.986 138.784 251.986Z" fill="#9FDFFF"/>
<path opacity="0.25" d="M138.573 194.917H221.449C226.707 194.917 231.02 190.616 231.02 185.371C231.02 180.125 226.707 175.824 221.449 175.824H138.573C133.315 175.824 129.003 180.125 129.003 185.371C129.003 190.721 133.315 194.917 138.573 194.917Z" fill="#9FDFFF"/>
<path opacity="0.15" d="M42.9726 194.917H109.862C115.121 194.917 119.433 190.616 119.433 185.371C119.433 180.125 115.121 175.824 109.862 175.824H42.9726C37.714 175.824 33.402 180.125 33.402 185.371C33.402 190.721 37.714 194.917 42.9726 194.917Z" fill="#649DFF"/>
<path opacity="0.35" d="M78.3102 223.452C83.5688 223.452 87.8809 219.151 87.8809 213.905C87.8809 208.66 83.5688 204.359 78.3102 204.359C73.0516 204.359 68.7395 208.66 68.7395 213.905C68.7395 219.151 73.0516 223.452 78.3102 223.452Z" fill="#9FDFFF"/>
<path opacity="0.35" d="M78.3102 48.3621C83.5688 48.3621 87.8809 44.0609 87.8809 38.8156C87.8809 33.5702 83.5688 29.269 78.3102 29.269C73.0516 29.269 68.7395 33.5702 68.7395 38.8156C68.7395 44.0609 73.0516 48.3621 78.3102 48.3621Z" fill="#9FDFFF"/>
<path opacity="0.15" d="M202.518 166.382H259.837C265.095 166.382 269.407 162.081 269.407 156.836C269.407 151.59 265.095 147.289 259.837 147.289H202.518C197.259 147.289 192.947 151.59 192.947 156.836C192.947 162.081 197.259 166.382 202.518 166.382Z" fill="#649DFF"/>
<path opacity="0.35" d="M140.045 133.547H192.947C198.206 133.547 202.518 129.245 202.518 124C202.518 118.755 198.206 114.454 192.947 114.454H140.045C134.787 114.454 130.475 118.755 130.475 124C130.475 129.245 134.787 133.547 140.045 133.547Z" fill="#9FDFFF"/>
<path opacity="0.35" d="M20.9914 166.382H78.3102C83.5688 166.382 87.8809 162.081 87.8809 156.836C87.8809 151.59 83.5688 147.289 78.3102 147.289H20.9914C15.7328 147.289 11.4208 151.59 11.4208 156.836C11.4208 162.081 15.7328 166.382 20.9914 166.382Z" fill="#9FDFFF"/>
<path opacity="0.35" d="M26.775 281.36C32.0336 281.36 36.3457 277.059 36.3457 271.814C36.3457 266.569 32.0336 262.267 26.775 262.267C21.5164 262.267 17.2044 266.569 17.2044 271.814C17.2044 277.059 21.5164 281.36 26.775 281.36Z" fill="#9FDFFF"/>
</g>
<defs>
<clipPath id="clip0">
<rect width="425" height="310" fill="white" transform="matrix(-1 0 0 1 375 0)"/>
</clipPath>
</defs>
</svg>
